<svg width="40" height="40" viewBox="0 0 40 40" fill="none" xmlns="http://www.w3.org/2000/svg">
<circle cx="20" cy="20" r="20" fill="#E3F2FD"/>
<path d="M12 18.25C11.5858 18.25 11.25 18.5858 11.25 19C11.25 19.4142 11.5858 19.75 12 19.75V18.25ZM23.75 11C23.75 10.5858 23.4142 10.25 23 10.25C22.5858 10.25 22.25 10.5858 22.25 11H23.75ZM22.25 15C22.25 15.4142 22.5858 15.75 23 15.75C23.4142 15.75 23.75 15.4142 23.75 15H22.25ZM17.75 11C17.75 10.5858 17.4142 10.25 17 10.25C16.5858 10.25 16.25 10.5858 16.25 11H17.75ZM16.25 15C16.25 15.4142 16.5858 15.75 17 15.75C17.4142 15.75 17.75 15.4142 17.75 15H16.25ZM28 18.25H12V19.75H28V18.25ZM12.75 27V15H11.25V27H12.75ZM14 28.25C13.3096 28.25 12.75 27.6904 12.75 27H11.25C11.25 28.5188 12.4812 29.75 14 29.75V28.25ZM14 12.25C12.4812 12.25 11.25 13.4812 11.25 15H12.75C12.75 14.3096 13.3096 13.75 14 13.75V12.25ZM28.75 27V19H27.25V27H28.75ZM28.75 19V15H27.25V19H28.75ZM26 29.75C27.5188 29.75 28.75 28.5188 28.75 27H27.25C27.25 27.6904 26.6904 28.25 26 28.25V29.75ZM26 13.75C26.6904 13.75 27.25 14.3096 27.25 15H28.75C28.75 13.4812 27.5188 12.25 26 12.25V13.75ZM26 12.25H14V13.75H26V12.25ZM26 28.25H14V29.75H26V28.25ZM22.25 11V15H23.75V11H22.25ZM16.25 11V15H17.75V11H16.25Z" fill="#2196F3"/>
</svg>
