<svg width="70" height="70" viewBox="0 0 70 70" fill="none" xmlns="http://www.w3.org/2000/svg">
<circle cx="35" cy="35" r="35" fill="#E3F2FD"/>
<path d="M29.75 36.25C29.1977 36.25 28.75 36.6977 28.75 37.25C28.75 37.8023 29.1977 38.25 29.75 38.25V36.25ZM40.25 38.25C40.8023 38.25 41.25 37.8023 41.25 37.25C41.25 36.6977 40.8023 36.25 40.25 36.25V38.25ZM36 32C36 31.4477 35.5523 31 35 31C34.4477 31 34 31.4477 34 32H36ZM34 42.5C34 43.0523 34.4477 43.5 35 43.5C35.5523 43.5 36 43.0523 36 42.5H34ZM38.5 27.5C38.5 28.0523 38.9477 28.5 39.5 28.5C40.0523 28.5 40.5 28.0523 40.5 27.5H38.5ZM29.5 27.5C29.5 28.0523 29.9477 28.5 30.5 28.5C31.0523 28.5 31.5 28.0523 31.5 27.5H29.5ZM29.75 38.25H40.25V36.25H29.75V38.25ZM34 32V42.5H36V32H34ZM26 28.5H44V26.5H26V28.5ZM46 30.5V44H48V30.5H46ZM44 46H26V48H44V46ZM24 44V30.5H22V44H24ZM26 46C24.8954 46 24 45.1046 24 44H22C22 46.2091 23.7909 48 26 48V46ZM46 44C46 45.1046 45.1046 46 44 46V48C46.2091 48 48 46.2091 48 44H46ZM44 28.5C45.1046 28.5 46 29.3954 46 30.5H48C48 28.2909 46.2091 26.5 44 26.5V28.5ZM26 26.5C23.7909 26.5 22 28.2909 22 30.5H24C24 29.3954 24.8954 28.5 26 28.5V26.5ZM40.5 27.5V24.5H38.5V27.5H40.5ZM36.5 20.5H33.5V22.5H36.5V20.5ZM29.5 24.5V27.5H31.5V24.5H29.5ZM33.5 20.5C31.2909 20.5 29.5 22.2909 29.5 24.5H31.5C31.5 23.3954 32.3954 22.5 33.5 22.5V20.5ZM40.5 24.5C40.5 22.2909 38.7091 20.5 36.5 20.5V22.5C37.6046 22.5 38.5 23.3954 38.5 24.5H40.5Z" fill="#2196F3"/>
</svg>
