<svg width="70" height="70" viewBox="0 0 70 70" fill="none" xmlns="http://www.w3.org/2000/svg">
<circle cx="35" cy="35" r="35" fill="#E0F2FE"/>
<path d="M41.3639 24.3934L41.8942 24.9237L41.8942 24.9237L41.3639 24.3934ZM40.7604 24.9968L41.2908 25.5272L40.7604 24.9968ZM45.6065 26.5147L46.1369 25.9844V25.9844L45.6065 26.5147ZM43.4852 24.3934L42.9549 24.9237L42.9549 24.9237L43.4852 24.3934ZM45.0031 29.2394L45.5335 29.7697L45.5335 29.7697L45.0031 29.2394ZM45.6065 28.636L45.0762 28.1057V28.1057L45.6065 28.636ZM47 32V31.25V31.25V32ZM46.1469 32V32.75V32ZM45.6066 41.3639L46.1369 40.8336L46.1369 40.8336L45.6066 41.3639ZM45.0032 40.7605L44.4728 41.2908H44.4728L45.0032 40.7605ZM43.4852 45.6066L42.9549 45.0762L43.4852 45.6066ZM45.6066 43.4853L46.1369 44.0156L45.6066 43.4853ZM40.7605 45.0032L41.2908 44.4728H41.2908L40.7605 45.0032ZM41.3639 45.6066L40.8336 46.1369L40.8336 46.1369L41.3639 45.6066ZM28.636 45.6066L29.1663 46.1369L28.636 45.6066ZM29.2394 45.0031L29.7697 45.5335H29.7697L29.2394 45.0031ZM24.3933 43.4852L24.9237 42.9549H24.9237L24.3933 43.4852ZM26.5147 45.6066L25.9843 46.1369H25.9843L26.5147 45.6066ZM24.9968 40.7604L25.5272 41.2908H25.5272L24.9968 40.7604ZM24.3933 41.3639L24.9237 41.8943L24.3933 41.3639ZM23.8531 32V31.25H23.8531L23.8531 32ZM23 32V32.75H23L23 32ZM24.3934 28.636L23.863 29.1663H23.863L24.3934 28.636ZM24.9968 29.2395L25.5272 28.7092L24.9968 29.2395ZM26.5147 24.3934L27.045 24.9237V24.9237L26.5147 24.3934ZM24.3934 26.5147L24.9237 27.045H24.9237L24.3934 26.5147ZM29.2395 24.9968L28.7092 25.5272L28.7092 25.5272L29.2395 24.9968ZM28.636 24.3934L29.1663 23.863L29.1663 23.863L28.636 24.3934ZM30.9766 25.2984L31.2642 25.9911H31.2642L30.9766 25.2984ZM25.2984 30.9766L25.9911 31.2642L25.2984 30.9766ZM25.2984 39.0233L25.9911 38.7357L25.2984 39.0233ZM30.9766 44.7015L31.2642 44.0089L30.9766 44.7015ZM39.0234 44.7016L38.7358 44.0089L39.0234 44.7016ZM44.7016 39.0234L45.3942 39.3109L44.7016 39.0234ZM44.7015 30.9766L44.0089 31.2642L44.7015 30.9766ZM39.0233 25.2984L38.7357 25.9911L39.0233 25.2984ZM36.5 20.75H33.5V22.25H36.5V20.75ZM38.75 23.8532V23H37.25V23.8532H38.75ZM40.8336 23.863L40.2301 24.4665L41.2908 25.5272L41.8942 24.9237L40.8336 23.863ZM46.1369 25.9844L44.0156 23.863L42.9549 24.9237L45.0762 27.045L46.1369 25.9844ZM45.5335 29.7697L46.1369 29.1663L45.0762 28.1057L44.4728 28.7091L45.5335 29.7697ZM47 31.25H46.1469V32.75L47 32.75V31.25ZM49.25 36.5V33.5H47.75V36.5H49.25ZM46.1469 38.75H47V37.25H46.1469V38.75ZM46.1369 40.8336L45.5335 40.2302L44.4728 41.2908L45.0762 41.8943L46.1369 40.8336ZM44.0156 46.1369L46.1369 44.0156L45.0762 42.9549L42.9549 45.0762L44.0156 46.1369ZM40.2302 45.5335L40.8336 46.1369L41.8943 45.0762L41.2908 44.4728L40.2302 45.5335ZM38.75 47V46.1469H37.25V47H38.75ZM33.5 49.25H36.5V47.75H33.5V49.25ZM31.25 46.1469V47H32.75V46.1469H31.25ZM29.1663 46.1369L29.7697 45.5335L28.7091 44.4728L28.1056 45.0762L29.1663 46.1369ZM23.863 44.0156L25.9843 46.1369L27.045 45.0762L24.9237 42.9549L23.863 44.0156ZM24.4665 40.2301L23.863 40.8336L24.9237 41.8943L25.5272 41.2908L24.4665 40.2301ZM23 38.75H23.8532V37.25H23V38.75ZM20.75 33.5V36.5H22.25V33.5H20.75ZM23.8531 31.25L23 31.25L23 32.75L23.8532 32.75L23.8531 31.25ZM23.863 29.1663L24.4665 29.7698L25.5272 28.7092L24.9237 28.1057L23.863 29.1663ZM25.9844 23.863L23.863 25.9844L24.9237 27.045L27.045 24.9237L25.9844 23.863ZM29.7698 24.4665L29.1663 23.863L28.1057 24.9237L28.7092 25.5272L29.7698 24.4665ZM31.25 23V23.8531H32.75V23H31.25ZM31.2642 25.9911C32.0919 25.6475 32.75 24.8439 32.75 23.8531H31.25C31.25 24.1459 31.0467 24.4573 30.6891 24.6058L31.2642 25.9911ZM28.7092 25.5272C29.4063 26.2243 30.4302 26.3374 31.2642 25.9911L30.6891 24.6058C30.3373 24.7518 29.9805 24.6772 29.7698 24.4665L28.7092 25.5272ZM27.045 24.9237C27.3379 24.6308 27.8128 24.6308 28.1057 24.9237L29.1663 23.863C28.2877 22.9844 26.863 22.9844 25.9844 23.863L27.045 24.9237ZM24.9237 28.1057C24.6308 27.8128 24.6308 27.3379 24.9237 27.045L23.863 25.9844C22.9844 26.863 22.9844 28.2877 23.863 29.1663L24.9237 28.1057ZM25.9911 31.2642C26.3374 30.4302 26.2243 29.4063 25.5272 28.7092L24.4665 29.7698C24.6772 29.9805 24.7518 30.3373 24.6058 30.6891L25.9911 31.2642ZM23.8531 32.75C24.8439 32.75 25.6475 32.0919 25.9911 31.2642L24.6058 30.6891C24.4573 31.0467 24.1459 31.25 23.8531 31.25V32.75ZM22.25 33.5C22.25 33.0858 22.5858 32.75 23 32.75V31.25C21.7574 31.25 20.75 32.2574 20.75 33.5H22.25ZM23 37.25C22.5858 37.25 22.25 36.9142 22.25 36.5H20.75C20.75 37.7426 21.7574 38.75 23 38.75V37.25ZM25.9911 38.7357C25.6475 37.9081 24.8439 37.25 23.8532 37.25V38.75C24.1459 38.75 24.4573 38.9533 24.6058 39.3109L25.9911 38.7357ZM25.5272 41.2908C26.2243 40.5936 26.3373 39.5697 25.9911 38.7357L24.6058 39.3109C24.7518 39.6627 24.6772 40.0194 24.4665 40.2301L25.5272 41.2908ZM24.9237 42.9549C24.6308 42.662 24.6308 42.1871 24.9237 41.8943L23.863 40.8336C22.9843 41.7123 22.9843 43.1369 23.863 44.0156L24.9237 42.9549ZM28.1056 45.0762C27.8128 45.3691 27.3379 45.3691 27.045 45.0762L25.9843 46.1369C26.863 47.0156 28.2876 47.0156 29.1663 46.1369L28.1056 45.0762ZM31.2642 44.0089C30.4302 43.6626 29.4062 43.7756 28.7091 44.4728L29.7697 45.5335C29.9805 45.3227 30.3372 45.2481 30.689 45.3942L31.2642 44.0089ZM32.75 46.1469C32.75 45.1561 32.0919 44.3525 31.2642 44.0089L30.689 45.3942C31.0467 45.5427 31.25 45.8542 31.25 46.1469H32.75ZM33.5 47.75C33.0858 47.75 32.75 47.4142 32.75 47H31.25C31.25 48.2426 32.2574 49.25 33.5 49.25V47.75ZM37.25 47C37.25 47.4142 36.9142 47.75 36.5 47.75V49.25C37.7426 49.25 38.75 48.2426 38.75 47H37.25ZM38.7358 44.0089C37.9081 44.3525 37.25 45.1561 37.25 46.1469H38.75C38.75 45.8541 38.9533 45.5427 39.3109 45.3942L38.7358 44.0089ZM41.2908 44.4728C40.5937 43.7757 39.5698 43.6626 38.7358 44.0089L39.3109 45.3942C39.6627 45.2482 40.0195 45.3228 40.2302 45.5335L41.2908 44.4728ZM42.9549 45.0762C42.662 45.3691 42.1871 45.3691 41.8943 45.0762L40.8336 46.1369C41.7123 47.0156 43.1369 47.0156 44.0156 46.1369L42.9549 45.0762ZM45.0762 41.8943C45.3691 42.1872 45.3691 42.662 45.0762 42.9549L46.1369 44.0156C47.0156 43.1369 47.0156 41.7123 46.1369 40.8336L45.0762 41.8943ZM44.0089 38.7358C43.6626 39.5698 43.7757 40.5937 44.4728 41.2908L45.5335 40.2302C45.3228 40.0195 45.2482 39.6627 45.3942 39.3109L44.0089 38.7358ZM46.1469 37.25C45.1561 37.25 44.3525 37.9081 44.0089 38.7358L45.3942 39.3109C45.5427 38.9533 45.8541 38.75 46.1469 38.75V37.25ZM47.75 36.5C47.75 36.9142 47.4142 37.25 47 37.25V38.75C48.2426 38.75 49.25 37.7426 49.25 36.5H47.75ZM47 32.75C47.4142 32.75 47.75 33.0858 47.75 33.5H49.25C49.25 32.2574 48.2426 31.25 47 31.25V32.75ZM44.0089 31.2642C44.3525 32.0919 45.1561 32.75 46.1469 32.75V31.25C45.8542 31.25 45.5427 31.0467 45.3942 30.689L44.0089 31.2642ZM44.4728 28.7091C43.7756 29.4062 43.6626 30.4302 44.0089 31.2642L45.3942 30.689C45.2481 30.3372 45.3227 29.9805 45.5335 29.7697L44.4728 28.7091ZM45.0762 27.045C45.3691 27.3379 45.3691 27.8128 45.0762 28.1057L46.1369 29.1663C47.0155 28.2877 47.0156 26.863 46.1369 25.9844L45.0762 27.045ZM41.8942 24.9237C42.1871 24.6308 42.662 24.6308 42.9549 24.9237L44.0156 23.863C43.1369 22.9844 41.7122 22.9844 40.8336 23.863L41.8942 24.9237ZM38.7357 25.9911C39.5697 26.3373 40.5936 26.2243 41.2908 25.5272L40.2301 24.4665C40.0194 24.6772 39.6627 24.7518 39.3109 24.6058L38.7357 25.9911ZM37.25 23.8532C37.25 24.8439 37.9081 25.6475 38.7357 25.9911L39.3109 24.6058C38.9533 24.4573 38.75 24.1459 38.75 23.8532H37.25ZM33.5 20.75C32.2574 20.75 31.25 21.7574 31.25 23H32.75C32.75 22.5858 33.0858 22.25 33.5 22.25V20.75ZM36.5 22.25C36.9142 22.25 37.25 22.5858 37.25 23H38.75C38.75 21.7574 37.7426 20.75 36.5 20.75V22.25ZM37.25 35C37.25 36.2426 36.2426 37.25 35 37.25V38.75C37.0711 38.75 38.75 37.0711 38.75 35H37.25ZM35 37.25C33.7574 37.25 32.75 36.2426 32.75 35H31.25C31.25 37.0711 32.9289 38.75 35 38.75V37.25ZM32.75 35C32.75 33.7574 33.7574 32.75 35 32.75V31.25C32.9289 31.25 31.25 32.9289 31.25 35H32.75ZM35 32.75C36.2426 32.75 37.25 33.7574 37.25 35H38.75C38.75 32.9289 37.0711 31.25 35 31.25V32.75Z" fill="#0BA5EC"/>
</svg>
