<svg width="22" height="9" viewBox="0 0 22 9" fill="none" xmlns="http://www.w3.org/2000/svg">
<path d="M3.74146 8.154C2.97879 8.154 2.33713 7.98533 1.81646 7.648C1.29579 7.30333 0.929128 6.83767 0.716461 6.251L2.01446 5.492C2.31513 6.27667 2.90546 6.669 3.78546 6.669C4.21079 6.669 4.52246 6.592 4.72046 6.438C4.91846 6.284 5.01746 6.08967 5.01746 5.855C5.01746 5.58367 4.89646 5.37467 4.65446 5.228C4.41246 5.074 3.97979 4.909 3.35646 4.733C3.01179 4.63033 2.71846 4.52767 2.47646 4.425C2.24179 4.32233 2.00346 4.18667 1.76146 4.018C1.52679 3.842 1.34713 3.622 1.22246 3.358C1.09779 3.094 1.03546 2.786 1.03546 2.434C1.03546 1.73733 1.28113 1.18367 1.77246 0.773C2.27113 0.355 2.86879 0.145999 3.56546 0.145999C4.18879 0.145999 4.73513 0.299999 5.20446 0.607999C5.68113 0.908666 6.05146 1.33033 6.31546 1.873L5.03946 2.61C4.73146 1.95 4.24013 1.62 3.56546 1.62C3.25013 1.62 3.00079 1.69333 2.81746 1.84C2.64146 1.97933 2.55346 2.16267 2.55346 2.39C2.55346 2.632 2.65246 2.83 2.85046 2.984C3.05579 3.13067 3.44446 3.292 4.01646 3.468C4.25113 3.54133 4.42713 3.6 4.54446 3.644C4.66913 3.68067 4.83413 3.743 5.03946 3.831C5.25213 3.91167 5.41346 3.98867 5.52346 4.062C5.64079 4.13533 5.77279 4.23433 5.91946 4.359C6.06613 4.48367 6.17613 4.612 6.24946 4.744C6.33013 4.876 6.39613 5.03733 6.44746 5.228C6.50613 5.41133 6.53546 5.613 6.53546 5.833C6.53546 6.54433 6.27513 7.109 5.75446 7.527C5.24113 7.945 4.57013 8.154 3.74146 8.154ZM13.9508 6.999C13.1735 7.769 12.2275 8.154 11.1128 8.154C9.99817 8.154 9.05217 7.769 8.27484 6.999C7.50484 6.22167 7.11984 5.272 7.11984 4.15C7.11984 3.028 7.50484 2.082 8.27484 1.312C9.05217 0.534666 9.99817 0.145999 11.1128 0.145999C12.2275 0.145999 13.1735 0.534666 13.9508 1.312C14.7282 2.082 15.1168 3.028 15.1168 4.15C15.1168 5.272 14.7282 6.22167 13.9508 6.999ZM9.34184 5.965C9.8185 6.43433 10.4088 6.669 11.1128 6.669C11.8168 6.669 12.4072 6.43433 12.8838 5.965C13.3605 5.48833 13.5988 4.88333 13.5988 4.15C13.5988 3.41667 13.3605 2.81167 12.8838 2.335C12.4072 1.85833 11.8168 1.62 11.1128 1.62C10.4088 1.62 9.8185 1.85833 9.34184 2.335C8.86517 2.81167 8.62684 3.41667 8.62684 4.15C8.62684 4.88333 8.86517 5.48833 9.34184 5.965ZM18.5335 8.154C17.7708 8.154 17.1291 7.98533 16.6085 7.648C16.0878 7.30333 15.7211 6.83767 15.5085 6.251L16.8065 5.492C17.1071 6.27667 17.6975 6.669 18.5775 6.669C19.0028 6.669 19.3145 6.592 19.5125 6.438C19.7105 6.284 19.8095 6.08967 19.8095 5.855C19.8095 5.58367 19.6885 5.37467 19.4465 5.228C19.2045 5.074 18.7718 4.909 18.1485 4.733C17.8038 4.63033 17.5105 4.52767 17.2685 4.425C17.0338 4.32233 16.7955 4.18667 16.5535 4.018C16.3188 3.842 16.1391 3.622 16.0145 3.358C15.8898 3.094 15.8275 2.786 15.8275 2.434C15.8275 1.73733 16.0731 1.18367 16.5645 0.773C17.0631 0.355 17.6608 0.145999 18.3575 0.145999C18.9808 0.145999 19.5271 0.299999 19.9965 0.607999C20.4731 0.908666 20.8435 1.33033 21.1075 1.873L19.8315 2.61C19.5235 1.95 19.0321 1.62 18.3575 1.62C18.0421 1.62 17.7928 1.69333 17.6095 1.84C17.4335 1.97933 17.3455 2.16267 17.3455 2.39C17.3455 2.632 17.4445 2.83 17.6425 2.984C17.8478 3.13067 18.2365 3.292 18.8085 3.468C19.0431 3.54133 19.2191 3.6 19.3365 3.644C19.4611 3.68067 19.6261 3.743 19.8315 3.831C20.0441 3.91167 20.2055 3.98867 20.3155 4.062C20.4328 4.13533 20.5648 4.23433 20.7115 4.359C20.8581 4.48367 20.9681 4.612 21.0415 4.744C21.1221 4.876 21.1881 5.03733 21.2395 5.228C21.2981 5.41133 21.3275 5.613 21.3275 5.833C21.3275 6.54433 21.0671 7.109 20.5465 7.527C20.0331 7.945 19.3621 8.154 18.5335 8.154Z" fill="#EB5757"/>
</svg>
