<svg width="20" height="20" viewBox="0 0 20 20" fill="none" xmlns="http://www.w3.org/2000/svg">
<path d="M11 6C11 5.44772 10.5523 5 10 5C9.44771 5 9 5.44772 9 6H11ZM10 10H9C9 10.2652 9.10536 10.5196 9.29289 10.7071L10 10ZM11.2929 12.7071C11.6834 13.0976 12.3166 13.0976 12.7071 12.7071C13.0976 12.3166 13.0976 11.6834 12.7071 11.2929L11.2929 12.7071ZM9 6V10H11V6H9ZM9.29289 10.7071L11.2929 12.7071L12.7071 11.2929L10.7071 9.29289L9.29289 10.7071ZM18 10C18 14.4183 14.4183 18 10 18V20C15.5228 20 20 15.5228 20 10H18ZM10 18C5.58172 18 2 14.4183 2 10H0C0 15.5228 4.47715 20 10 20V18ZM2 10C2 5.58172 5.58172 2 10 2V0C4.47715 0 0 4.47715 0 10H2ZM10 2C14.4183 2 18 5.58172 18 10H20C20 4.47715 15.5228 0 10 0V2Z" fill="#2196F3"/>
</svg>
