<svg width="20" height="20" viewBox="0 0 20 20" fill="none" xmlns="http://www.w3.org/2000/svg">
<path d="M18.25 10C18.25 14.5563 14.5563 18.25 10 18.25V19.75C15.3848 19.75 19.75 15.3848 19.75 10H18.25ZM10 18.25C5.44365 18.25 1.75 14.5563 1.75 10H0.25C0.25 15.3848 4.61522 19.75 10 19.75V18.25ZM1.75 10C1.75 5.44365 5.44365 1.75 10 1.75V0.25C4.61522 0.25 0.25 4.61522 0.25 10H1.75ZM10 1.75C14.5563 1.75 18.25 5.44365 18.25 10H19.75C19.75 4.61522 15.3848 0.25 10 0.25V1.75ZM10 1C9.55 1.6 9.54973 1.5998 9.54948 1.59961C9.54942 1.59956 9.54918 1.59939 9.54906 1.59929C9.5488 1.5991 9.54861 1.59895 9.54847 1.59885C9.5482 1.59864 9.54817 1.59862 9.54837 1.59877C9.54877 1.59908 9.5501 1.6001 9.55234 1.60183C9.55683 1.6053 9.56493 1.61163 9.5764 1.62081C9.59936 1.63917 9.63579 1.66893 9.68378 1.71007C9.77982 1.79238 9.92185 1.92001 10.0947 2.09283C10.4407 2.43885 10.9077 2.96357 11.376 3.66603C12.3106 5.06805 13.25 7.17573 13.25 10H14.75C14.75 6.82427 13.6894 4.43195 12.624 2.83397C12.0923 2.03643 11.5593 1.43615 11.1553 1.03217C10.9532 0.829993 10.7827 0.676366 10.66 0.571183C10.5986 0.518571 10.5491 0.478015 10.5134 0.449505C10.4956 0.435247 10.4813 0.423995 10.4706 0.415746C10.4653 0.411622 10.4609 0.408248 10.4574 0.405624C10.4557 0.404311 10.4542 0.403187 10.453 0.40225C10.4524 0.401781 10.4518 0.401359 10.4513 0.400984C10.4511 0.400797 10.4507 0.400551 10.4506 0.400457C10.4503 0.400223 10.45 0.4 10 1ZM13.25 10C13.25 12.8243 12.3106 14.9319 11.376 16.334C10.9077 17.0364 10.4407 17.5611 10.0947 17.9072C9.92185 18.08 9.77982 18.2076 9.68378 18.2899C9.63579 18.3311 9.59936 18.3608 9.5764 18.3792C9.56493 18.3884 9.55683 18.3947 9.55234 18.3982C9.5501 18.3999 9.54877 18.4009 9.54837 18.4012C9.54817 18.4014 9.5482 18.4014 9.54847 18.4012C9.54861 18.401 9.5488 18.4009 9.54906 18.4007C9.54918 18.4006 9.54942 18.4004 9.54948 18.4004C9.54973 18.4002 9.55 18.4 10 19C10.45 19.6 10.4503 19.5998 10.4506 19.5995C10.4507 19.5994 10.4511 19.5992 10.4513 19.599C10.4518 19.5986 10.4524 19.5982 10.453 19.5977C10.4542 19.5968 10.4557 19.5957 10.4574 19.5944C10.4609 19.5918 10.4653 19.5884 10.4706 19.5843C10.4813 19.576 10.4956 19.5648 10.5134 19.5505C10.5491 19.522 10.5986 19.4814 10.66 19.4288C10.7827 19.3236 10.9532 19.17 11.1553 18.9678C11.5593 18.5639 12.0923 17.9636 12.624 17.166C13.6894 15.5681 14.75 13.1757 14.75 10H13.25ZM10 19C10.45 18.4 10.4503 18.4002 10.4505 18.4004C10.4506 18.4004 10.4508 18.4006 10.4509 18.4007C10.4512 18.4009 10.4514 18.401 10.4515 18.4012C10.4518 18.4014 10.4518 18.4014 10.4516 18.4012C10.4512 18.4009 10.4499 18.3999 10.4477 18.3982C10.4432 18.3947 10.4351 18.3884 10.4236 18.3792C10.4006 18.3608 10.3642 18.3311 10.3162 18.2899C10.2202 18.2076 10.0782 18.08 9.90533 17.9072C9.55931 17.5611 9.09234 17.0364 8.62404 16.334C7.68935 14.9319 6.75 12.8243 6.75 10H5.25C5.25 13.1757 6.31065 15.5681 7.37596 17.166C7.90766 17.9636 8.44069 18.5639 8.84467 18.9678C9.04685 19.17 9.21732 19.3236 9.34003 19.4288C9.40141 19.4814 9.45092 19.522 9.48656 19.5505C9.50438 19.5648 9.51874 19.576 9.5294 19.5843C9.53472 19.5884 9.53912 19.5918 9.54257 19.5944C9.54429 19.5957 9.54577 19.5968 9.54701 19.5977C9.54763 19.5982 9.54819 19.5986 9.54869 19.599C9.54894 19.5992 9.54927 19.5994 9.54939 19.5995C9.5497 19.5998 9.55 19.6 10 19ZM6.75 10C6.75 7.17573 7.68935 5.06805 8.62404 3.66603C9.09234 2.96357 9.55931 2.43885 9.90533 2.09283C10.0782 1.92001 10.2202 1.79238 10.3162 1.71007C10.3642 1.66893 10.4006 1.63917 10.4236 1.62081C10.4351 1.61163 10.4432 1.6053 10.4477 1.60183C10.4499 1.6001 10.4512 1.59908 10.4516 1.59877C10.4518 1.59862 10.4518 1.59864 10.4515 1.59885C10.4514 1.59895 10.4512 1.5991 10.4509 1.59929C10.4508 1.59939 10.4506 1.59956 10.4505 1.59961C10.4503 1.5998 10.45 1.6 10 1C9.55 0.4 9.5497 0.400223 9.54939 0.400457C9.54927 0.40055 9.54894 0.400797 9.54869 0.400984C9.54819 0.401359 9.54763 0.401781 9.54701 0.40225C9.54577 0.403187 9.54429 0.404311 9.54257 0.405623C9.53912 0.408248 9.53472 0.411622 9.5294 0.415746C9.51874 0.423995 9.50438 0.435247 9.48656 0.449505C9.45092 0.478015 9.40141 0.518571 9.34003 0.571183C9.21732 0.676366 9.04685 0.829993 8.84467 1.03217C8.44069 1.43615 7.90766 2.03643 7.37596 2.83397C6.31065 4.43195 5.25 6.82427 5.25 10H6.75ZM19 9.25H1V10.75H19V9.25Z" fill="#2196F3"/>
</svg>
