<svg width="40" height="40" viewBox="0 0 40 40" fill="none" xmlns="http://www.w3.org/2000/svg">
<rect opacity="0.1" width="40" height="40" rx="20" fill="#0BA5EC"/>
<path d="M28.8882 29.9974V27.7752C28.8882 26.5964 28.42 25.466 27.5865 24.6325C26.753 23.799 25.6225 23.3307 24.4438 23.3307H15.5549C14.3762 23.3307 13.2457 23.799 12.4122 24.6325C11.5787 25.466 11.1105 26.5964 11.1105 27.7752V29.9974M24.4438 14.4418C24.4438 16.8964 22.4539 18.8863 19.9993 18.8863C17.5447 18.8863 15.5549 16.8964 15.5549 14.4418C15.5549 11.9872 17.5447 9.99738 19.9993 9.99738C22.4539 9.99738 24.4438 11.9872 24.4438 14.4418Z" stroke="#0BA5EC" stroke-width="1.5" stroke-linecap="round" stroke-linejoin="round"/>
</svg>
