<svg width="40" height="40" viewBox="0 0 40 40" fill="none" xmlns="http://www.w3.org/2000/svg">
<circle cx="20" cy="20" r="20" fill="#E3F2FD"/>
<path d="M16 23.75C15.5858 23.75 15.25 24.0858 15.25 24.5C15.25 24.9142 15.5858 25.25 16 25.25V23.75ZM24 25.25C24.4142 25.25 24.75 24.9142 24.75 24.5C24.75 24.0858 24.4142 23.75 24 23.75V25.25ZM16 19.75C15.5858 19.75 15.25 20.0858 15.25 20.5C15.25 20.9142 15.5858 21.25 16 21.25V19.75ZM22 21.25C22.4142 21.25 22.75 20.9142 22.75 20.5C22.75 20.0858 22.4142 19.75 22 19.75V21.25ZM23 11.25C22.5858 11.25 22.25 11.5858 22.25 12C22.25 12.4142 22.5858 12.75 23 12.75V11.25ZM16 25.25H24V23.75H16V25.25ZM16 21.25H22V19.75H16V21.25ZM26.25 14V26.5H27.75V14H26.25ZM25 27.75H15V29.25H25V27.75ZM13.75 26.5V14H12.25V26.5H13.75ZM15 12.75H17V11.25H15V12.75ZM25 11.25H23V12.75H25V11.25ZM18.5 11.25H21.5V9.75H18.5V11.25ZM21.5 12.75H18.5V14.25H21.5V12.75ZM18.5 12.75C18.0858 12.75 17.75 12.4142 17.75 12H16.25C16.25 13.2426 17.2574 14.25 18.5 14.25V12.75ZM21.5 14.25C22.7426 14.25 23.75 13.2426 23.75 12H22.25C22.25 12.4142 21.9142 12.75 21.5 12.75V14.25ZM21.5 11.25C21.9142 11.25 22.25 11.5858 22.25 12H23.75C23.75 10.7574 22.7426 9.75 21.5 9.75V11.25ZM13.75 14C13.75 13.3096 14.3096 12.75 15 12.75V11.25C13.4812 11.25 12.25 12.4812 12.25 14H13.75ZM15 27.75C14.3096 27.75 13.75 27.1904 13.75 26.5H12.25C12.25 28.0188 13.4812 29.25 15 29.25V27.75ZM18.5 9.75C17.2574 9.75 16.25 10.7574 16.25 12H17.75C17.75 11.5858 18.0858 11.25 18.5 11.25V9.75ZM26.25 26.5C26.25 27.1904 25.6904 27.75 25 27.75V29.25C26.5188 29.25 27.75 28.0188 27.75 26.5H26.25ZM27.75 14C27.75 12.4812 26.5188 11.25 25 11.25V12.75C25.6904 12.75 26.25 13.3096 26.25 14H27.75Z" fill="#2196F3"/>
</svg>
