<svg width="96" height="96" viewBox="0 0 96 96" fill="none" xmlns="http://www.w3.org/2000/svg">
<circle cx="48" cy="47.9673" r="47.7378" fill="#E0F2FE"/>
<path d="M14.1177 5.59336C18.3476 5.48695 22.5804 5.58745 26.8103 5.53424C36.1687 5.64065 45.53 5.44556 54.8854 5.62883C55.0185 8.16204 54.9446 10.6982 54.9564 13.2344C55.0332 24.8658 54.9534 36.5002 55.0037 48.1317C55.7486 48.1938 56.4935 48.2647 57.2383 48.3475C57.5546 47.0646 57.8857 45.6222 59.0503 44.83C60.1558 43.9402 61.6426 44.0939 62.958 44.224C63.3009 43.0446 63.5876 41.7204 64.6104 40.9282C66.0587 39.7222 68.3023 39.8227 69.7122 41.0405C72.6327 43.4377 75.5028 45.897 78.4174 48.3032C80.5752 50.0796 82.6118 52.069 84.0572 54.4839C85.346 56.5353 86.1796 58.9148 87.962 60.6233C89.1768 61.7909 90.5218 62.8137 91.8253 63.8807C92.6471 64.537 93.4629 65.205 94.2846 65.8641C94.2551 66.1036 94.193 66.5854 94.1634 66.8278C93.9831 66.7598 93.6196 66.6238 93.4363 66.5529C92.2332 65.8701 91.2135 64.9212 90.1434 64.0551C88.6064 62.7486 86.9244 61.5456 85.7716 59.8607C84.5863 58.1315 83.803 56.1658 82.6177 54.4337C81.2225 52.3291 79.3485 50.6058 77.4153 49.0067C74.7816 46.8075 72.1449 44.6201 69.5319 42.3973C68.7013 41.6967 67.652 41.0021 66.511 41.3006C64.8025 41.5933 63.7591 43.7245 64.631 45.2408C65.3227 46.305 66.3987 47.038 67.25 47.9662C66.91 48.0667 66.5908 48.3504 66.2213 48.2884C64.6281 47.5287 63.6467 45.7936 61.9028 45.3088C59.9696 44.83 58.0749 46.9109 58.7074 48.7909C59.4671 50.863 62.1422 51.4157 62.7866 53.5735C60.0967 53.1686 58.8197 50.2452 56.3309 49.4205C54.3711 48.8943 52.4084 51.0226 53.0912 52.9321C54.1021 55.3855 57.4512 55.9855 58.1369 58.634C56.7329 58.3177 55.6954 57.298 54.6519 56.3875C50.1501 52.6099 45.6276 48.8589 41.1435 45.0635C40.3158 44.3688 39.2753 43.6683 38.1373 43.9521C36.4111 44.2388 35.3647 46.3789 36.2367 47.91C36.9018 48.9978 38.0102 49.7013 38.9561 50.523C44.8709 55.4416 50.7649 60.3869 56.6708 65.3144C57.8118 66.2129 58.9764 67.1204 59.8041 68.3353C59.5499 68.4092 59.0444 68.5629 58.7902 68.6397C56.9191 67.1027 55.119 65.4799 53.1888 64.0138C52.6212 65.1193 51.9561 66.3223 52.2281 67.6111C52.6153 69.5768 54.1346 71.037 55.5683 72.3198C58.403 74.7289 61.7579 76.8956 65.5769 77.1143C68.7723 77.3981 71.9321 76.1625 75.1186 76.7419C77.77 77.2237 79.8332 79.1125 81.796 80.8269C81.9733 81.1609 82.0265 81.5393 81.9556 81.962C81.5477 81.8053 81.1191 81.693 80.7496 81.4565C78.9553 80.0377 77.2261 78.2848 74.8673 77.9006C71.5833 77.3803 68.3259 78.6898 65.033 78.2553C61.2081 77.9301 57.9389 75.728 54.9771 73.4667C54.9475 75.5654 54.9859 77.6671 54.9032 79.7657C52.6537 79.881 50.4013 79.8337 48.1519 79.8337C39.6773 79.8367 31.2057 79.8367 22.7312 79.8337C19.8817 79.813 17.0322 79.9047 14.1857 79.7657C14.0586 77.2946 14.1236 74.8235 14.1147 72.3523C14.026 52.7429 14.097 33.1364 14.0763 13.527C14.0763 11.0618 14.0142 8.5936 14.1029 6.12838C14.1088 5.9924 14.1147 5.72637 14.1177 5.59336ZM15.3119 6.74616C15.2823 9.82325 15.2794 12.9033 15.3119 15.9833C28.1286 16.0306 40.9484 16.0247 53.7652 15.9863C53.7829 12.9033 53.7888 9.82325 53.7622 6.7432C40.9454 6.74025 28.1286 6.73434 15.3119 6.74616ZM15.3798 17.1687C15.2941 33.8192 15.3503 50.4728 15.3503 67.1234C27.1709 67.1795 38.9945 67.1854 50.8152 67.1204C51.096 65.7459 51.5985 64.4335 52.2813 63.2127C49.1362 60.5347 45.9527 57.9039 42.781 55.2613C41.2055 56.0949 39.5946 56.9078 37.8388 57.2773C31.6314 58.7227 24.753 55.551 21.8119 49.9053C19.6984 46.0389 19.4945 41.209 21.2355 37.1653C22.5183 34.1503 24.8506 31.6023 27.7385 30.0505C31.7969 27.8395 36.9313 27.6769 41.0814 29.7431C45.3379 31.7472 48.4475 35.9445 49.1806 40.5883C49.7156 43.5323 49.1008 46.5237 48.0337 49.2727C49.1983 50.3073 50.3925 51.3123 51.6251 52.2641C51.8852 51.3802 52.0655 50.4196 52.701 49.7131C53.2361 49.0865 53.9248 48.4598 53.7799 47.5435C53.7326 37.4195 53.8272 27.2926 53.7326 17.1687C40.9484 17.2012 28.1641 17.2041 15.3798 17.1687ZM29.6332 30.4613C26.2339 31.824 23.4613 34.6469 22.1459 38.058C20.6177 41.9125 21.0227 46.4675 23.2219 49.9851C25.625 53.9607 30.2037 56.5176 34.8592 56.4171C37.2683 56.423 39.6212 55.6722 41.711 54.5017C40.6291 53.3637 39.3965 52.3853 38.1432 51.4453C37.759 51.8827 37.5314 52.6631 36.8456 52.669C35.3174 52.7695 33.7774 52.7518 32.2492 52.6808C31.6462 52.6867 31.0136 52.2936 30.9722 51.6463C30.7801 50.0235 30.9308 48.38 30.8983 46.7484C29.2667 46.7336 27.6232 46.8873 25.9974 46.6833C25.3531 46.6272 24.9629 45.9976 24.9658 45.3945C24.8949 43.8634 24.8683 42.3234 24.9836 40.7952C25.0072 40.1212 25.6486 39.6483 26.2901 39.6542C27.8271 39.5596 29.3701 39.666 30.9101 39.5714C30.9427 37.9073 30.7417 36.2194 31.0136 34.5671C31.1466 33.8991 31.8767 33.6921 32.4679 33.704C33.9311 33.6714 35.4061 33.6212 36.8663 33.7453C37.4663 33.7631 37.96 34.2715 37.9777 34.8686C38.1107 36.4411 37.9866 38.0255 38.0427 39.6039C39.6212 39.6631 41.2026 39.5389 42.7751 39.6719C43.2776 39.6956 43.7565 40.0385 43.8659 40.5439C44.2146 42.3145 43.6974 44.1679 44.1053 45.9207C44.9536 46.908 46.0591 47.641 47.0937 48.4214C48.1312 45.7138 48.5362 42.7135 47.8356 39.87C46.9075 35.8233 43.9959 32.297 40.1946 30.6269C36.8929 29.1371 32.9763 29.078 29.6332 30.4613ZM32.1309 34.8804C32.0304 36.5209 32.1221 38.1644 32.0748 39.8079C32.0245 40.136 32.0866 40.8011 31.5782 40.7508C29.7633 40.9045 27.9365 40.7479 26.1186 40.8425C26.1039 42.3943 26.1039 43.9462 26.095 45.501C28.0695 45.6428 30.05 45.5394 32.0245 45.6222C32.125 47.5967 32.0186 49.5771 32.1546 51.5517C33.7508 51.531 35.347 51.5517 36.9431 51.5251C36.9697 49.7427 34.8533 48.9919 34.7824 47.2302C34.4129 45.0487 36.1894 42.8318 38.4004 42.7342C40.168 42.5303 41.51 43.8575 42.784 44.8595C42.7988 43.5057 42.7958 42.1549 42.7692 40.8011C40.8154 40.807 38.8615 40.8543 36.9136 40.739C36.7953 38.7911 36.8426 36.8372 36.8456 34.8893C35.2731 34.8686 33.7035 34.8686 32.1309 34.8804ZM15.3562 68.3264C15.2291 71.7582 15.306 75.1989 15.3119 78.6336C28.1286 78.675 40.9454 78.6721 53.7652 78.6366C53.7267 76.5645 53.9041 74.4776 53.6972 72.4174C52.7897 71.0695 51.6813 69.8428 51.031 68.3294C39.1394 68.353 27.2478 68.3619 15.3562 68.3264Z" fill="#0BA5EC"/>
<path d="M26.6638 10.0223C27.6127 9.58482 28.8039 10.3977 28.7004 11.4529C28.727 12.6057 27.2166 13.2915 26.3446 12.5732C25.4342 11.9614 25.6233 10.3829 26.6638 10.0223Z" fill="#0BA5EC"/>
<path d="M31.3091 11.8926C31.4096 11.399 31.4598 10.6334 32.1752 10.8019C35.5331 10.7664 38.8969 10.7634 42.2548 10.8226C42.3375 11.1448 42.4203 11.4699 42.506 11.7951C40.7561 12.0966 38.9767 11.9428 37.215 11.9635C35.2463 11.9547 33.2748 12.0286 31.3091 11.8926Z" fill="#0BA5EC"/>
<path d="M34.3847 70.4381C36.0636 70.0155 37.8992 71.2481 38.1505 72.9566C38.4756 74.5616 37.3406 76.2849 35.7207 76.5746C34.1334 76.9559 32.3865 75.8947 32.0229 74.3015C31.5588 72.6462 32.6939 70.7663 34.3847 70.4381ZM34.4113 71.6442C33.0634 72.0639 32.6496 74.0237 33.7196 74.9489C34.7778 76.0071 36.8381 75.3183 36.9977 73.8167C37.2844 72.4068 35.7473 71.1269 34.4113 71.6442Z" fill="#0BA5EC"/>
<path d="M15.309 6.76006C28.1258 6.74824 40.9426 6.75415 53.7593 6.75711C53.7859 9.83716 53.78 12.9172 53.7623 16.0002C40.9455 16.0386 28.1258 16.0445 15.309 15.9973C15.2765 12.9172 15.2794 9.83715 15.309 6.76006ZM26.6626 10.0382C25.6221 10.3988 25.433 11.9772 26.3434 12.5891C27.2154 13.3074 28.7258 12.6216 28.6992 11.4688C28.8027 10.4136 27.6114 9.60068 26.6626 10.0382ZM31.3063 11.9092C33.272 12.0452 35.2436 11.9713 37.2122 11.9802C38.9739 11.9595 40.7534 12.1132 42.5033 11.8117C42.4175 11.4865 42.3348 11.1614 42.252 10.8392C38.8941 10.7801 35.5303 10.783 32.1724 10.8185C31.4571 10.65 31.4068 11.4156 31.3063 11.9092Z" fill="white"/>
<path d="M29.6253 30.4759C32.9684 29.0925 36.8849 29.1516 40.1867 30.6414C43.988 32.3115 46.8995 35.8379 47.8277 39.8845C48.5282 42.7281 48.1233 45.7283 47.0858 48.4359C46.0512 47.6555 44.9457 46.9225 44.0973 45.9352C43.6894 44.1824 44.2067 42.329 43.8579 40.5584C43.7485 40.053 43.2697 39.7101 42.7672 39.6864C41.1946 39.5534 39.6132 39.6776 38.0348 39.6185C37.9786 38.04 38.1028 36.4556 37.9698 34.8831C37.952 34.286 37.4584 33.7776 36.8583 33.7599C35.3981 33.6357 33.9231 33.686 32.46 33.7185C31.8688 33.7067 31.1387 33.9136 31.0057 34.5816C30.7337 36.234 30.9347 37.9218 30.9022 39.5859C29.3622 39.6805 27.8192 39.5741 26.2821 39.6687C25.6407 39.6628 24.9993 40.1357 24.9756 40.8097C24.8604 42.3379 24.887 43.8779 24.9579 45.4091C24.9549 46.0121 25.3451 46.6417 25.9895 46.6978C27.6152 46.9018 29.2587 46.7481 30.8904 46.7629C30.9229 48.3945 30.7721 50.038 30.9643 51.6608C31.0057 52.3081 31.6382 52.7013 32.2412 52.6954C33.7694 52.7663 35.3095 52.784 36.8377 52.6835C37.5234 52.6776 37.751 51.8973 38.1353 51.4598C39.3886 52.3998 40.6212 53.3782 41.7031 54.5162C39.6132 55.6867 37.2603 56.4375 34.8513 56.4316C30.1957 56.5321 25.6171 53.9753 23.2139 49.9996C21.0147 46.4821 20.6098 41.927 22.138 38.0725C23.4533 34.6614 26.226 31.8385 29.6253 30.4759Z" fill="white"/>
<path d="M64.6265 45.2643C63.7545 43.7479 64.798 41.6167 66.5065 41.3241C67.6474 41.0255 68.6968 41.7202 69.5274 42.4207C72.1404 44.6436 74.7771 46.8309 77.4108 49.0301C79.3439 50.6293 81.218 52.3526 82.6132 54.4572C83.7985 56.1893 84.5818 58.155 85.7671 59.8842C86.9199 61.5691 88.6018 62.7721 90.1389 64.0786C91.2089 64.9447 92.2287 65.8935 93.4318 66.5763C89.5359 71.3235 85.773 76.1801 81.7914 80.8504C79.8287 79.136 77.7655 77.2471 75.1141 76.7653C71.9276 76.186 68.7677 77.4215 65.5724 77.1378C61.7534 76.919 58.3984 74.7524 55.5637 72.3433C54.1301 71.0604 52.6108 69.6002 52.2236 67.6346C51.9516 66.3458 52.6167 65.1427 53.1842 64.0372C55.1144 65.5033 56.9146 67.1261 58.7857 68.6632C59.0399 68.5864 59.5453 68.4326 59.7995 68.3588C58.9719 67.1439 57.8073 66.2364 56.6663 65.3378C50.7604 60.4103 44.8663 55.4651 38.9516 50.5465C38.0057 49.7248 36.8972 49.0213 36.2322 47.9335C35.3602 46.4023 36.4065 44.2623 38.1328 43.9755C39.2708 43.6918 40.3113 44.3923 41.1389 45.087C45.623 48.8823 50.1456 52.6334 54.6474 56.411C55.6908 57.3214 56.7284 58.3412 58.1324 58.6575C57.4466 56.009 54.0976 55.409 53.0867 52.9556C52.4039 51.046 54.3666 48.9178 56.3264 49.4439C58.8152 50.2686 60.0922 53.192 62.782 53.597C62.1376 51.4392 59.4626 50.8864 58.7029 48.8143C58.0703 46.9344 59.9651 44.8534 61.8982 45.3323C63.6422 45.8171 64.6236 47.5522 66.2168 48.3118C66.5863 48.3739 66.9055 48.0901 67.2454 47.9896C66.3941 47.0615 65.3182 46.3284 64.6265 45.2643Z" fill="white"/>
<path d="M15.3506 68.3389C27.2422 68.3744 39.1337 68.3655 51.0253 68.3419C51.6756 69.8553 52.7841 71.082 53.6915 72.4299C53.8984 74.4902 53.7211 76.577 53.7595 78.6491C40.9398 78.6846 28.123 78.6875 15.3062 78.6461C15.3003 75.2114 15.2235 71.7707 15.3506 68.3389ZM34.3806 70.4494C32.6899 70.7775 31.5548 72.6575 32.0189 74.3128C32.3825 75.906 34.1294 76.9672 35.7167 76.5859C37.3365 76.2962 38.4716 74.5729 38.1465 72.9679C37.8952 71.2594 36.0596 70.0267 34.3806 70.4494Z" fill="white"/>
<path d="M34.409 71.6593C35.7451 71.142 37.2822 72.4219 36.9954 73.8319C36.8358 75.3334 34.7756 76.0222 33.7173 74.964C32.6473 74.0388 33.0611 72.079 34.409 71.6593Z" fill="white"/>
<path d="M15.3723 17.1671C28.1566 17.2025 40.9409 17.1996 53.7251 17.1671C53.8197 27.291 53.7251 37.4179 53.7724 47.5419C53.9173 48.4582 53.2285 49.0849 52.6935 49.7115C52.058 50.418 51.8777 51.3786 51.6176 52.2624C50.385 51.3106 49.1908 50.3056 48.0262 49.2711C49.0932 46.5221 49.7081 43.5307 49.173 40.5866C48.44 35.9429 45.3304 31.7456 41.0739 29.7415C36.9238 27.6753 31.7894 27.8379 27.7309 30.0489C24.843 31.6007 22.5108 34.1487 21.228 37.1637C19.4869 41.2074 19.6909 46.0373 21.8044 49.9036C24.7455 55.5494 31.6239 58.7211 37.8313 57.2757C39.5871 56.9062 41.198 56.0933 42.7735 55.2597C45.9452 57.9023 49.1287 60.5331 52.2738 63.2111C51.591 64.4319 51.0885 65.7443 50.8077 67.1188C38.987 67.1838 27.1634 67.1779 15.3428 67.1218C15.3428 50.4712 15.2866 33.8176 15.3723 17.1671Z" fill="#E0F2FE"/>
<path d="M32.1224 34.886C33.6949 34.8742 35.2645 34.8742 36.837 34.8948C36.8341 36.8428 36.7868 38.7966 36.905 40.7446C38.853 40.8599 40.8068 40.8126 42.7607 40.8066C42.7873 42.1604 42.7902 43.5113 42.7754 44.8651C41.5014 43.863 40.1595 42.5358 38.3918 42.7398C36.1808 42.8374 34.4043 45.0543 34.7738 47.2357C34.8448 48.9974 36.9612 49.7482 36.9346 51.5306C35.3384 51.5573 33.7422 51.5366 32.146 51.5573C32.01 49.5827 32.1165 47.6023 32.016 45.6277C30.0414 45.545 28.061 45.6484 26.0864 45.5065C26.0953 43.9517 26.0953 42.3999 26.1101 40.848C27.928 40.7534 29.7547 40.9101 31.5696 40.7564C32.078 40.8066 32.016 40.1416 32.0662 39.8135C32.1135 38.17 32.0219 36.5265 32.1224 34.886Z" fill="#E0F2FE"/>
</svg>
