<svg width="83" height="80" viewBox="0 0 83 80" fill="none" xmlns="http://www.w3.org/2000/svg">
<ellipse cx="41.4543" cy="40" rx="41.2618" ry="40" fill="#7CD4FD"/>
<path d="M23.0122 8.20674C23.8323 7.84018 24.8619 8.52129 24.7725 9.4055C24.7955 10.3714 23.4899 10.9461 22.7362 10.3442C21.9493 9.83151 22.1128 8.50891 23.0122 8.20674Z" fill="#98A2B3"/>
<path d="M27.0271 9.77509C27.1139 9.36147 27.1574 8.71998 27.7757 8.86116C30.678 8.83144 33.5855 8.82896 36.4879 8.8785C36.5594 9.14847 36.631 9.42091 36.7051 9.69336C35.1926 9.94599 33.6545 9.8172 32.1318 9.83453C30.4302 9.8271 28.7261 9.88902 27.0271 9.77509Z" fill="#98A2B3"/>
<path d="M29.685 58.8279C31.1362 58.4737 32.7228 59.5065 32.94 60.9381C33.221 62.283 32.2399 63.7269 30.8398 63.9697C29.4678 64.2892 27.9579 63.4 27.6436 62.065C27.2425 60.678 28.2236 59.1028 29.685 58.8279ZM29.708 59.8384C28.543 60.1901 28.1853 61.8322 29.1101 62.6074C30.0248 63.4941 31.8056 62.917 31.9435 61.6588C32.1914 60.4774 30.8628 59.4049 29.708 59.8384Z" fill="#98A2B3"/>
<path d="M16.052 4.04916C19.5694 3.96067 23.0893 4.04424 26.6067 4C34.3888 4.08849 42.1734 3.92626 49.9531 4.07866C50.0637 6.18518 50.0022 8.29417 50.012 10.4032C50.076 20.0755 50.0096 29.7503 50.0514 39.4226C50.6708 39.4742 51.2902 39.5332 51.9096 39.602C52.1727 38.5352 52.4479 37.3357 53.4164 36.677C54.3357 35.9371 55.5721 36.0649 56.6659 36.1731C56.951 35.1923 57.1895 34.0911 58.04 33.4324C59.2444 32.4295 61.11 32.5131 62.2825 33.5258C64.711 35.5193 67.0978 37.5643 69.5214 39.5652C71.3158 41.0424 73.0093 42.6967 74.2113 44.7049C75.283 46.4108 75.9762 48.3895 77.4584 49.8102C78.4686 50.7811 79.587 51.6316 80.671 52.519C81.3543 53.0646 82.0327 53.6201 82.7161 54.1683C82.6915 54.3674 82.6399 54.768 82.6153 54.9696C82.4654 54.9131 82.163 54.8 82.0106 54.741C81.0102 54.1732 80.1622 53.3842 79.2724 52.664C77.9942 51.5775 76.5956 50.5771 75.637 49.176C74.6513 47.7381 73.9999 46.1035 73.0142 44.6631C71.8541 42.913 70.2957 41.48 68.6881 40.1502C66.498 38.3214 64.3055 36.5025 62.1326 34.654C61.4419 34.0715 60.5693 33.4938 59.6205 33.7421C58.1997 33.9854 57.332 35.7577 58.0572 37.0186C58.6323 37.9035 59.5271 38.5131 60.235 39.2849C59.9523 39.3685 59.6868 39.6045 59.3796 39.5529C58.0547 38.9212 57.2386 37.4783 55.7884 37.0752C54.1809 36.677 52.6053 38.4074 53.1313 39.9707C53.763 41.6938 55.9875 42.1535 56.5234 43.9478C54.2865 43.6111 53.2247 41.1801 51.155 40.4943C49.5254 40.0568 47.8932 41.8265 48.461 43.4144C49.3017 45.4546 52.0866 45.9536 52.6569 48.156C51.4893 47.8929 50.6266 47.0449 49.7589 46.2879C46.0153 43.1465 42.2545 40.0273 38.5257 36.8712C37.8374 36.2935 36.9722 35.711 36.0259 35.9469C34.5904 36.1854 33.7203 37.965 34.4454 39.2382C34.9984 40.1428 35.9202 40.7278 36.7068 41.4111C41.6253 45.5013 46.5266 49.6136 51.4377 53.7111C52.3865 54.4583 53.355 55.2129 54.0432 56.2232C53.8318 56.2846 53.4115 56.4125 53.2001 56.4764C51.6442 55.1982 50.1472 53.8487 48.5421 52.6296C48.0702 53.5489 47.5171 54.5493 47.7433 55.621C48.0653 57.2556 49.3287 58.4698 50.5209 59.5366C52.8781 61.5399 55.668 63.3416 58.8437 63.5235C61.5009 63.7595 64.1285 62.732 66.7782 63.2138C68.9831 63.6145 70.6988 65.1852 72.3309 66.6108C72.4784 66.8886 72.5226 67.2032 72.4636 67.5547C72.1244 67.4244 71.768 67.331 71.4608 67.1344C69.9688 65.9545 68.5308 64.4969 66.5693 64.1774C63.8384 63.7447 61.1297 64.8337 58.3914 64.4723C55.2108 64.2019 52.4922 62.3707 50.0293 60.4903C50.0047 62.2355 50.0366 63.9832 49.9678 65.7284C48.0972 65.8242 46.2242 65.7849 44.3537 65.7849C37.3065 65.7874 30.2618 65.7874 23.2147 65.7849C20.8451 65.7677 18.4756 65.8439 16.1085 65.7284C16.0028 63.6735 16.0569 61.6186 16.0495 59.5637C15.9758 43.2571 16.0348 26.953 16.0176 10.6465C16.0176 8.59651 15.9659 6.54406 16.0397 4.49406C16.0446 4.38099 16.0495 4.15977 16.052 4.04916ZM17.045 5.00779C17.0204 7.56659 17.018 10.1279 17.045 12.6891C27.703 12.7284 38.3635 12.7235 49.0215 12.6916C49.0362 10.1279 49.0411 7.56659 49.019 5.00533C38.361 5.00287 27.703 4.99796 17.045 5.00779ZM17.1016 13.6748C17.0303 27.5208 17.077 41.3694 17.077 55.2154C26.9066 55.2621 36.7387 55.267 46.5684 55.2129C46.8019 54.07 47.2197 52.9786 47.7875 51.9634C45.1722 49.7365 42.5249 47.5488 39.8874 45.3513C38.5773 46.0445 37.2377 46.7205 35.7776 47.0277C30.6158 48.2297 24.896 45.5922 22.4502 40.8974C20.6927 37.6823 20.5231 33.6659 21.9709 30.3033C23.0377 27.7961 24.9771 25.6773 27.3786 24.3869C30.7534 22.5483 35.023 22.4131 38.4741 24.1312C42.0136 25.7978 44.5995 29.2882 45.2091 33.1497C45.654 35.5979 45.1427 38.0854 44.2554 40.3714C45.2238 41.2317 46.2169 42.0674 47.2419 42.8589C47.4582 42.124 47.6081 41.3251 48.1366 40.7376C48.5815 40.2165 49.1542 39.6954 49.0338 38.9334C48.9944 30.5147 49.0731 22.0935 48.9944 13.6748C38.3635 13.7018 27.7325 13.7043 17.1016 13.6748ZM28.9542 24.7285C26.1274 25.8617 23.8218 28.2091 22.728 31.0456C21.4572 34.2509 21.7939 38.0387 23.6227 40.9638C25.6211 44.2698 29.4285 46.396 33.2999 46.3124C35.3032 46.3174 37.2598 45.693 38.9976 44.7196C38.098 43.7733 37.073 42.9597 36.0308 42.178C35.7113 42.5418 35.522 43.1908 34.9517 43.1957C33.6809 43.2792 32.4003 43.2645 31.1295 43.2055C30.6281 43.2104 30.102 42.8835 30.0676 42.3452C29.9079 40.9957 30.0332 39.6291 30.0062 38.2722C28.6494 38.26 27.2827 38.3878 25.9308 38.2182C25.3949 38.1715 25.0705 37.6479 25.0729 37.1465C25.0139 35.8732 24.9918 34.5926 25.0877 33.3218C25.1073 32.7614 25.6407 32.3681 26.1741 32.373C27.4523 32.2943 28.7354 32.3828 30.016 32.3042C30.0431 30.9203 29.8759 29.5168 30.102 28.1427C30.2127 27.5872 30.8198 27.4151 31.3114 27.425C32.5281 27.3979 33.7547 27.3562 34.9689 27.4594C35.4679 27.4741 35.8784 27.8969 35.8932 28.3934C36.0038 29.7011 35.9005 31.0186 35.9472 32.3312C37.2598 32.3804 38.5749 32.2771 39.8825 32.3877C40.3004 32.4074 40.6986 32.6925 40.7895 33.1128C41.0796 34.5852 40.6494 36.1264 40.9886 37.584C41.6941 38.405 42.6134 39.0146 43.4737 39.6635C44.3365 37.4119 44.6732 34.917 44.0907 32.5524C43.3188 29.1874 40.8977 26.255 37.7367 24.8662C34.9911 23.6273 31.7342 23.5782 28.9542 24.7285ZM31.0312 28.4033C30.9476 29.7675 31.0238 31.1341 30.9845 32.5008C30.9427 32.7736 30.9943 33.3267 30.5715 33.2849C29.0623 33.4127 27.5432 33.2824 26.0316 33.3611C26.0193 34.6516 26.0193 35.942 26.0119 37.235C27.6539 37.3529 29.3007 37.2669 30.9427 37.3357C31.0263 38.9777 30.9378 40.6246 31.0508 42.2665C32.3782 42.2493 33.7055 42.2665 35.0328 42.2444C35.055 40.7622 33.295 40.1379 33.236 38.6729C32.9288 36.8589 34.406 35.0154 36.2446 34.9342C37.7145 34.7646 38.8305 35.8683 39.8899 36.7016C39.9022 35.5758 39.8997 34.4525 39.8776 33.3267C38.2529 33.3316 36.6281 33.3709 35.0083 33.2751C34.9099 31.6552 34.9493 30.0305 34.9517 28.4106C33.6441 28.3934 32.3389 28.3934 31.0312 28.4033ZM17.0819 56.2158C16.9762 59.0696 17.0401 61.9307 17.045 64.787C27.703 64.8214 38.361 64.8189 49.0215 64.7894C48.9895 63.0663 49.137 61.331 48.9649 59.6177C48.2103 58.4969 47.2886 57.4768 46.7478 56.2183C36.8592 56.2379 26.9705 56.2453 17.0819 56.2158Z" fill="#0BA5EC"/>
<path d="M26.4858 7.7335C27.2748 7.36971 28.2654 8.04567 28.1794 8.92318C28.2015 9.88181 26.9454 10.4521 26.2203 9.85477C25.4632 9.34596 25.6205 8.03338 26.4858 7.7335Z" fill="#0BA5EC"/>
<path d="M30.3484 9.28901C30.432 8.87852 30.4738 8.24189 31.0686 8.38199C33.8609 8.3525 36.6582 8.35004 39.4505 8.3992C39.5193 8.66713 39.5881 8.93751 39.6594 9.20789C38.2043 9.45861 36.7245 9.33079 35.2596 9.348C33.6225 9.34062 31.983 9.40208 30.3484 9.28901Z" fill="#0BA5EC"/>
<path d="M32.9056 57.9695C34.3017 57.618 35.8282 58.643 36.0371 60.0637C36.3075 61.3984 35.3636 62.8315 34.0166 63.0723C32.6966 63.3894 31.244 62.507 30.9416 61.1821C30.5557 59.8056 31.4996 58.2423 32.9056 57.9695ZM32.9277 58.9724C31.8068 59.3214 31.4627 60.9511 32.3525 61.7204C33.2325 62.6004 34.9457 62.0277 35.0785 60.779C35.3169 59.6065 34.0387 58.5422 32.9277 58.9724Z" fill="#0BA5EC"/>
<path d="M17.0447 5.01076C27.7027 5.00093 38.3607 5.00585 49.0187 5.00831C49.0408 7.56957 49.0359 10.1308 49.0211 12.6945C38.3631 12.7265 27.7027 12.7314 17.0447 12.6921C17.0177 10.1308 17.0201 7.56957 17.0447 5.01076ZM26.486 7.73671C25.6207 8.03659 25.4634 9.34918 26.2205 9.85799C26.9456 10.4553 28.2017 9.88503 28.1795 8.9264C28.2656 8.04888 27.275 7.37293 26.486 7.73671ZM30.3475 9.29264C31.9821 9.40571 33.6216 9.34426 35.2587 9.35164C36.7236 9.33443 38.2034 9.46225 39.6585 9.21153C39.5872 8.94115 39.5184 8.67076 39.4496 8.40284C36.6573 8.35368 33.86 8.35614 31.0677 8.38563C30.4729 8.24552 30.4311 8.88215 30.3475 9.29264Z" fill="white"/>
<path d="M28.9491 24.7325C31.7291 23.5822 34.986 23.6314 37.7316 24.8702C40.8926 26.259 43.3138 29.1914 44.0856 32.5564C44.6681 34.9211 44.3314 37.416 43.4686 39.6675C42.6083 39.0186 41.689 38.409 40.9836 37.588C40.6444 36.1304 41.0745 34.5892 40.7845 33.1169C40.6935 32.6965 40.2953 32.4114 39.8774 32.3918C38.5698 32.2811 37.2547 32.3844 35.9422 32.3352C35.8954 31.0226 35.9987 29.7051 35.8881 28.3975C35.8733 27.9009 35.4628 27.4782 34.9639 27.4634C33.7496 27.3602 32.523 27.402 31.3063 27.429C30.8147 27.4192 30.2076 27.5912 30.097 28.1467C29.8708 29.5208 30.038 30.9243 30.0109 32.3082C28.7303 32.3868 27.4472 32.2983 26.169 32.377C25.6357 32.3721 25.1023 32.7654 25.0826 33.3258C24.9867 34.5966 25.0089 35.8772 25.0678 37.1505C25.0654 37.6519 25.3899 38.1755 25.9257 38.2222C27.2776 38.3918 28.6443 38.264 30.0011 38.2763C30.0281 39.6331 29.9028 40.9998 30.0626 42.3492C30.097 42.8875 30.623 43.2144 31.1244 43.2095C32.3952 43.2685 33.6759 43.2833 34.9466 43.1997C35.5169 43.1948 35.7062 42.5459 36.0257 42.1821C37.0679 42.9637 38.0929 43.7773 38.9926 44.7237C37.2547 45.697 35.2981 46.3214 33.2949 46.3165C29.4235 46.4 25.616 44.2738 23.6176 40.9678C21.7888 38.0428 21.4521 34.2549 22.7229 31.0497C23.8167 28.2131 26.1223 25.8657 28.9491 24.7325Z" fill="white"/>
<path d="M58.0566 37.0248C57.3315 35.7638 58.1992 33.9916 59.6199 33.7482C60.5687 33.5 61.4413 34.0776 62.132 34.6601C64.3049 36.5086 66.4975 38.3275 68.6876 40.1563C70.2951 41.4861 71.8535 42.9191 73.0137 44.6692C73.9994 46.1096 74.6507 47.7442 75.6364 49.1822C76.595 50.5832 77.9936 51.5836 79.2718 52.6701C80.1616 53.3903 81.0096 54.1793 82.0101 54.7471C78.7704 58.6947 75.6413 62.7332 72.3304 66.6169C70.6982 65.1913 68.9825 63.6206 66.7777 63.2199C64.1279 62.7382 61.5003 63.7656 58.8432 63.5296C55.6674 63.3477 52.8775 61.546 50.5203 59.5427C49.3282 58.4759 48.0647 57.2617 47.7427 55.6271C47.5166 54.5554 48.0696 53.555 48.5416 52.6357C50.1467 53.8549 51.6436 55.2043 53.1995 56.4825C53.4109 56.4186 53.8313 56.2908 54.0426 56.2293C53.3544 55.2191 52.3859 54.4644 51.4371 53.7172C46.526 49.6197 41.6247 45.5074 36.7062 41.4172C35.9196 40.7339 34.9979 40.1489 34.4448 39.2444C33.7197 37.9711 34.5898 36.1915 36.0253 35.9531C36.9717 35.7171 37.8369 36.2996 38.5251 36.8773C42.254 40.0334 46.0147 43.1526 49.7583 46.294C50.626 47.051 51.4888 47.8991 52.6563 48.1621C52.0861 45.9597 49.3011 45.4607 48.4605 43.4205C47.8927 41.8327 49.5248 40.0629 51.1545 40.5004C53.2241 41.1862 54.286 43.6172 56.5228 43.9539C55.9869 42.1596 53.7624 41.6999 53.1307 39.9768C52.6047 38.4135 54.1803 36.6831 55.7878 37.0813C57.2381 37.4844 58.0541 38.9273 59.379 39.559C59.6863 39.6106 59.9517 39.3746 60.2344 39.2911C59.5265 38.5192 58.6318 37.9096 58.0566 37.0248Z" fill="white"/>
<path d="M17.0795 56.2213C26.9681 56.2507 36.8568 56.2434 46.7454 56.2237C47.2862 57.4822 48.2079 58.5023 48.9625 59.6232C49.1346 61.3364 48.9871 63.0718 49.0191 64.7948C38.3586 64.8243 27.7006 64.8268 17.0426 64.7924C17.0377 61.9362 16.9738 59.075 17.0795 56.2213ZM32.9043 57.9763C31.4983 58.2491 30.5544 59.8124 30.9403 61.1889C31.2426 62.5138 32.6953 63.3962 34.0153 63.0791C35.3623 62.8383 36.3062 61.4052 36.0358 60.0705C35.8269 58.6498 34.3004 57.6248 32.9043 57.9763Z" fill="white"/>
<path d="M32.9288 58.977C34.0398 58.5468 35.318 59.6112 35.0796 60.7836C34.9468 62.0323 33.2336 62.605 32.3536 61.7251C31.4638 60.9557 31.8079 59.326 32.9288 58.977Z" fill="white"/>
<path d="M17.0966 13.6791C27.7276 13.7086 38.3585 13.7061 48.9895 13.6791C49.0681 22.0978 48.9895 30.519 49.0288 38.9377C49.1493 39.6997 48.5765 40.2208 48.1316 40.7419C47.6032 41.3294 47.4532 42.1283 47.2369 42.8632C46.2119 42.0717 45.2189 41.236 44.2504 40.3757C45.1378 38.0897 45.649 35.6022 45.2041 33.154C44.5945 29.2924 42.0087 25.8021 38.4691 24.1355C35.0181 22.4174 30.7485 22.5525 27.3736 24.3911C24.9721 25.6816 23.0327 27.8004 21.966 30.3076C20.5182 33.6702 20.6878 37.6866 22.4453 40.9017C24.891 45.5965 30.6108 48.234 35.7727 47.032C37.2327 46.7248 38.5724 46.0488 39.8825 45.3556C42.52 47.5531 45.1673 49.7408 47.7826 51.9677C47.2148 52.9829 46.7969 54.0743 46.5634 55.2172C36.7338 55.2713 26.9017 55.2664 17.072 55.2197C17.072 41.3736 17.0253 27.5251 17.0966 13.6791Z" fill="#E0F2FE"/>
<path d="M31.0258 28.4076C32.3335 28.3978 33.6387 28.3978 34.9464 28.415C34.9439 30.0348 34.9046 31.6596 35.0029 33.2794C36.6228 33.3753 38.2475 33.3359 39.8723 33.331C39.8944 34.4568 39.8969 35.5801 39.8846 36.7059C38.8252 35.8726 37.7092 34.769 36.2393 34.9386C34.4007 35.0197 32.9234 36.8632 33.2307 38.6772C33.2897 40.1422 35.0496 40.7665 35.0275 42.2487C33.7002 42.2708 32.3728 42.2536 31.0455 42.2708C30.9324 40.6289 31.0209 38.982 30.9374 37.34C29.2954 37.2712 27.6485 37.3573 26.0066 37.2393C26.0139 35.9463 26.0139 34.6559 26.0262 33.3654C27.5379 33.2868 29.057 33.417 30.5662 33.2892C30.989 33.331 30.9374 32.778 30.9791 32.5051C31.0185 31.1384 30.9423 29.7718 31.0258 28.4076Z" fill="#E0F2FE"/>
</svg>
