<svg width="70" height="71" viewBox="0 0 70 71" fill="none" xmlns="http://www.w3.org/2000/svg">
<circle cx="35" cy="35.1406" r="35" fill="#E0F2FE"/>
<path d="M48.4992 41.8556L47.7494 41.837C47.7493 41.8432 47.7492 41.8494 47.7492 41.8556H48.4992ZM48.4992 45.9203H47.7492L47.7492 45.9233L48.4992 45.9203ZM24.2123 21.6408V20.8908L24.2115 20.8908L24.2123 21.6408ZM28.285 21.6408V22.3908L28.2923 22.3907L28.285 21.6408ZM30.0821 22.2959L29.5936 22.865V22.865L30.0821 22.2959ZM29.6154 32.3579L29.0856 31.827C28.8462 32.0659 28.7963 32.4354 28.9637 32.7292L29.6154 32.3579ZM37.7608 40.4872L37.3906 41.1395C37.6838 41.3059 38.052 41.2562 38.2906 41.018L37.7608 40.4872ZM47.8564 40.0367L48.4282 39.5513L47.8564 40.0367ZM32.0643 29.297L32.7978 29.4538L32.0643 29.297ZM40.8277 38.0431L40.9839 38.7767L40.8277 38.0431ZM45.5397 48.63L45.6071 47.8831C45.5845 47.881 45.5618 47.88 45.5391 47.88L45.5397 48.63ZM21.5107 24.5944L22.2607 24.595C22.2607 24.5722 22.2597 24.5495 22.2576 24.5268L21.5107 24.5944ZM47.7492 41.8556V45.9203H49.2492V41.8556H47.7492ZM24.2123 22.3908H28.285V20.8908H24.2123V22.3908ZM28.2923 22.3907C28.7696 22.386 29.2321 22.5547 29.5936 22.865L30.5705 21.7268C29.933 21.1795 29.118 20.8825 28.2776 20.8908L28.2923 22.3907ZM28.9637 32.7292C30.9632 36.2386 33.8746 39.1442 37.3906 41.1395L38.131 39.8349C34.8495 37.9727 32.1327 35.2612 30.267 31.9866L28.9637 32.7292ZM47.2847 40.5221C47.5961 40.8889 47.7614 41.3569 47.7494 41.837L49.249 41.8743C49.2701 41.0255 48.9778 40.1987 48.4282 39.5513L47.2847 40.5221ZM29.5936 22.865C29.8345 23.0718 30.1034 23.4522 30.3638 23.9965C30.6184 24.5286 30.8398 25.1643 31.0117 25.8255C31.3648 27.1839 31.4695 28.4915 31.3309 29.1403L32.7978 29.4538C33.0106 28.4578 32.8342 26.8744 32.4634 25.4481C32.2734 24.717 32.0221 23.987 31.7169 23.3491C31.4176 22.7234 31.0397 22.1295 30.5705 21.7268L29.5936 22.865ZM40.9839 38.7767C41.636 38.6379 42.9522 38.7431 44.3171 39.0978C44.9817 39.2705 45.6202 39.4929 46.1539 39.7488C46.6999 40.0106 47.0797 40.2806 47.2847 40.5221L48.4282 39.5513C48.0261 39.0777 47.4301 38.6971 46.8023 38.3962C46.1622 38.0893 45.4289 37.8368 44.6944 37.646C43.2611 37.2735 41.67 37.097 40.6716 37.3095L40.9839 38.7767ZM38.2906 41.018C38.5257 40.7835 38.762 40.5213 38.9831 40.2802C39.2106 40.0321 39.4297 39.7975 39.656 39.5845C40.1145 39.1527 40.5394 38.8713 40.9839 38.7767L40.6716 37.3095C39.8294 37.4888 39.1608 37.9903 38.6276 38.4925C38.3579 38.7464 38.1066 39.0166 37.8776 39.2664C37.6422 39.523 37.436 39.7518 37.231 39.9563L38.2906 41.018ZM31.3309 29.1403C31.2363 29.5829 30.9548 30.0066 30.522 30.4644C30.3085 30.6901 30.0734 30.9089 29.8249 31.1359C29.5833 31.3566 29.3206 31.5924 29.0856 31.827L30.1452 32.8887C30.3502 32.6842 30.5793 32.4783 30.8365 32.2434C31.0868 32.0148 31.3575 31.764 31.6119 31.4949C32.115 30.9629 32.6179 30.2953 32.7978 29.4538L31.3309 29.1403ZM45.5391 47.88C32.4163 47.8903 22.2504 37.6312 22.2607 24.595L20.7607 24.5938C20.7498 38.4551 31.5839 49.391 45.5403 49.38L45.5391 47.88ZM47.7492 45.9233C47.7537 47.0369 46.7338 47.9847 45.6071 47.8831L45.4723 49.377C47.483 49.5584 49.2573 47.9112 49.2492 45.9172L47.7492 45.9233ZM22.2576 24.5268C22.1565 23.4102 23.0969 22.3918 24.213 22.3908L24.2115 20.8908C22.2241 20.8926 20.5823 22.6579 20.7637 24.662L22.2576 24.5268Z" fill="#0BA5EC"/>
</svg>
