<svg width="19" height="20" viewBox="0 0 19 20" fill="none" xmlns="http://www.w3.org/2000/svg">
<path d="M1.5 8C0.947715 8 0.5 8.44772 0.5 9C0.5 9.55229 0.947715 10 1.5 10V8ZM13.5 1C13.5 0.447715 13.0523 0 12.5 0C11.9477 0 11.5 0.447715 11.5 1H13.5ZM11.5 5C11.5 5.55228 11.9477 6 12.5 6C13.0523 6 13.5 5.55228 13.5 5H11.5ZM7.5 1C7.5 0.447715 7.05228 0 6.5 0C5.94772 0 5.5 0.447715 5.5 1H7.5ZM5.5 5C5.5 5.55228 5.94772 6 6.5 6C7.05228 6 7.5 5.55228 7.5 5H5.5ZM17.5 8H1.5V10H17.5V8ZM2.5 17V5H0.5V17H2.5ZM3.5 18C2.94772 18 2.5 17.5523 2.5 17H0.5C0.5 18.6569 1.84315 20 3.5 20V18ZM3.5 2C1.84315 2 0.5 3.34315 0.5 5H2.5C2.5 4.44772 2.94772 4 3.5 4V2ZM18.5 17V9H16.5V17H18.5ZM18.5 9V5H16.5V9H18.5ZM15.5 20C17.1569 20 18.5 18.6569 18.5 17H16.5C16.5 17.5523 16.0523 18 15.5 18V20ZM15.5 4C16.0523 4 16.5 4.44772 16.5 5H18.5C18.5 3.34315 17.1569 2 15.5 2V4ZM15.5 2H3.5V4H15.5V2ZM15.5 18H3.5V20H15.5V18ZM11.5 1V5H13.5V1H11.5ZM5.5 1V5H7.5V1H5.5Z" fill="#2196F3"/>
</svg>
