<svg width="98" height="98" viewBox="0 0 98 98" fill="none" xmlns="http://www.w3.org/2000/svg">
<circle cx="49" cy="49" r="49" fill="#64B5F6"/>
<path d="M14.2204 5.50599C18.5621 5.39677 22.9069 5.49993 27.2486 5.44531C36.8545 5.55454 46.4633 5.35429 56.0661 5.5424C56.2026 8.14259 56.1268 10.7458 56.1389 13.349C56.2178 25.288 56.1359 37.2301 56.1875 49.1691C56.952 49.2328 57.7166 49.3056 58.4812 49.3906C58.8059 48.0738 59.1457 46.5932 60.3411 45.7801C61.4758 44.8668 63.002 45.0246 64.3521 45.1581C64.7041 43.9475 64.9984 42.5882 66.0481 41.7751C67.5348 40.5372 69.8377 40.6404 71.2849 41.8904C74.2826 44.351 77.2286 46.8753 80.2202 49.3451C82.4351 51.1685 84.5256 53.2105 86.0092 55.6893C87.3321 57.7949 88.1877 60.2373 90.0172 61.991C91.2642 63.1895 92.6447 64.2392 93.9827 65.3345C94.8262 66.0081 95.6636 66.6938 96.507 67.3704C96.4767 67.6161 96.413 68.1107 96.3826 68.3595C96.1976 68.2897 95.8244 68.1501 95.6363 68.0773C94.4014 67.3765 93.3547 66.4025 92.2563 65.5135C90.6786 64.1725 88.9522 62.9376 87.769 61.2082C86.5523 59.4333 85.7483 57.4157 84.5316 55.6377C83.0995 53.4775 81.1759 51.7086 79.1917 50.0672C76.4883 47.8098 73.782 45.5646 71.0998 43.283C70.2473 42.564 69.1702 41.8509 67.999 42.1574C66.2454 42.4578 65.1743 44.6453 66.0694 46.2018C66.7794 47.294 67.8837 48.0465 68.7576 48.9992C68.4086 49.1023 68.081 49.3936 67.7017 49.3299C66.0664 48.5501 65.059 46.7692 63.269 46.2716C61.2847 45.78 59.3399 47.916 59.9891 49.8457C60.7689 51.9726 63.5147 52.5399 64.1761 54.7548C61.4151 54.3391 60.1044 51.3384 57.5498 50.4919C55.5382 49.9519 53.5236 52.1364 54.2244 54.0964C55.2621 56.6147 58.6997 57.2306 59.4036 59.9491C57.9624 59.6244 56.8974 58.5777 55.8264 57.6432C51.2055 53.7657 46.5634 49.9155 41.9608 46.0197C41.1112 45.3067 40.0433 44.5877 38.8751 44.8789C37.1033 45.1732 36.0292 47.3699 36.9242 48.9415C37.6069 50.0581 38.7447 50.7802 39.7156 51.6236C45.7867 56.6723 51.8366 61.7483 57.8987 66.8061C59.0698 67.7284 60.2652 68.6599 61.1148 69.9069C60.8538 69.9827 60.335 70.1405 60.0741 70.2194C58.1535 68.6417 56.3058 66.976 54.3246 65.4711C53.742 66.6058 53.0594 67.8407 53.3385 69.1635C53.7359 71.1812 55.2955 72.68 56.767 73.9968C59.6766 76.4695 63.1203 78.6935 67.0403 78.918C70.3201 79.2093 73.5635 77.941 76.8342 78.5357C79.5558 79.0303 81.6735 80.969 83.6881 82.7288C83.8702 83.0716 83.9248 83.46 83.852 83.8939C83.4333 83.7331 82.9933 83.6178 82.6141 83.375C80.7724 81.9187 78.9975 80.1195 76.5763 79.7251C73.2055 79.1911 69.862 80.5352 66.482 80.0892C62.5559 79.7554 59.2003 77.495 56.1602 75.174C56.1298 77.3282 56.1693 79.4854 56.0843 81.6396C53.7754 81.7579 51.4634 81.7093 49.1545 81.7093C40.4559 81.7124 31.7603 81.7124 23.0616 81.7093C20.1368 81.6881 17.212 81.7822 14.2902 81.6396C14.1597 79.1031 14.2265 76.5666 14.2174 74.0301C14.1264 53.9022 14.1992 33.7773 14.1779 13.6494C14.1779 11.119 14.1142 8.58556 14.2052 6.05516C14.2113 5.91559 14.2174 5.64253 14.2204 5.50599ZM15.4462 6.68927C15.4158 9.84773 15.4128 13.0092 15.4462 16.1707C28.6018 16.2192 41.7605 16.2132 54.9162 16.1737C54.9344 13.0092 54.9405 9.84773 54.9132 6.68624C41.7575 6.68321 28.6018 6.67714 15.4462 6.68927ZM15.5159 17.3874C15.428 34.4782 15.4856 51.5721 15.4856 68.6629C27.6188 68.7205 39.755 68.7266 51.8882 68.6599C52.1764 67.249 52.6922 65.9019 53.3931 64.6488C50.1649 61.9 46.8972 59.1997 43.6416 56.4872C42.0245 57.3428 40.3709 58.1772 38.5687 58.5565C32.1972 60.0401 25.1369 56.7846 22.1181 50.9895C19.9487 47.021 19.7394 42.0633 21.5264 37.9127C22.8432 34.818 25.2371 32.2027 28.2013 30.6098C32.3671 28.3403 37.6373 28.1734 41.8971 30.2942C46.2661 32.3513 49.4579 36.6597 50.2104 41.4262C50.7595 44.4481 50.1285 47.5186 49.0332 50.3402C50.2286 51.4022 51.4543 52.4337 52.7195 53.4107C52.9865 52.5035 53.1716 51.5175 53.8239 50.7923C54.3731 50.1491 55.08 49.5059 54.9314 48.5653C54.8828 38.1737 54.9799 27.779 54.8828 17.3874C41.7605 17.4207 28.6382 17.4238 15.5159 17.3874ZM30.1462 31.0315C26.657 32.4302 23.8111 35.3277 22.4609 38.829C20.8923 42.7854 21.308 47.4609 23.5653 51.0714C26.032 55.1523 30.7317 57.7767 35.5104 57.6735C37.9831 57.6796 40.3982 56.909 42.5433 55.7075C41.4329 54.5394 40.1677 53.5351 38.8812 52.5703C38.4868 53.0193 38.2532 53.8203 37.5493 53.8264C35.9807 53.9295 34.3999 53.9113 32.8313 53.8385C32.2124 53.8446 31.5631 53.441 31.5206 52.7766C31.3234 51.1109 31.4781 49.424 31.4447 47.7492C29.7699 47.734 28.083 47.8918 26.4143 47.6824C25.7529 47.6248 25.3524 46.9785 25.3554 46.3596C25.2826 44.7879 25.2553 43.2072 25.3736 41.6386C25.3979 40.9468 26.0563 40.4614 26.7146 40.4674C28.2924 40.3703 29.8761 40.4796 31.4569 40.3825C31.4903 38.6743 31.2839 36.9418 31.5631 35.2458C31.6996 34.5601 32.449 34.3477 33.0558 34.3599C34.5577 34.3265 36.0717 34.2749 37.5705 34.4023C38.1864 34.4205 38.6931 34.9424 38.7113 35.5553C38.8478 37.1694 38.7204 38.7957 38.7781 40.4158C40.3982 40.4765 42.0215 40.3491 43.6356 40.4856C44.1514 40.5099 44.6429 40.8618 44.7551 41.3807C45.1132 43.1981 44.5822 45.1004 45.0009 46.8996C45.8717 47.913 47.0064 48.6654 48.0683 49.4664C49.1333 46.6872 49.549 43.6077 48.8299 40.6889C47.8772 36.5353 44.8886 32.9157 40.9868 31.2014C37.5978 29.6722 33.5777 29.6116 30.1462 31.0315ZM32.7099 35.5674C32.6068 37.2513 32.7008 38.9383 32.6523 40.6252C32.6007 40.962 32.6644 41.6446 32.1426 41.5931C30.2797 41.7508 28.4046 41.59 26.5387 41.6871C26.5235 43.28 26.5235 44.8729 26.5144 46.4688C28.5412 46.6144 30.574 46.5082 32.6007 46.5932C32.7039 48.6199 32.5947 50.6527 32.7342 52.6795C34.3726 52.6583 36.011 52.6795 37.6494 52.6522C37.6767 50.8227 35.5043 50.052 35.4315 48.2437C35.0522 46.0046 36.8757 43.729 39.1452 43.6289C40.9595 43.4196 42.337 44.7818 43.6447 45.8104C43.6598 44.4208 43.6568 43.0342 43.6295 41.6446C41.624 41.6507 39.6185 41.6992 37.619 41.5809C37.4977 39.5815 37.5462 37.576 37.5493 35.5765C35.9351 35.5553 34.3241 35.5553 32.7099 35.5674ZM15.4917 69.8978C15.3612 73.4203 15.4401 76.9519 15.4462 80.4775C28.6018 80.52 41.7575 80.517 54.9162 80.4806C54.8768 78.3537 55.0588 76.2116 54.8464 74.0969C53.915 72.7134 52.7772 71.4542 52.1097 69.9008C39.9037 69.9251 27.6977 69.9342 15.4917 69.8978Z" fill="#2196F3"/>
<path d="M27.0993 10.0537C28.0733 9.6047 29.296 10.4391 29.1898 11.5222C29.2171 12.7055 27.6667 13.4094 26.7716 12.6721C25.8372 12.0441 26.0313 10.4239 27.0993 10.0537Z" fill="#2196F3"/>
<path d="M31.8672 11.9738C31.9703 11.4671 32.0219 10.6813 32.7562 10.8542C36.2029 10.8178 39.6556 10.8148 43.1023 10.8755C43.1873 11.2062 43.2722 11.5399 43.3602 11.8737C41.564 12.1832 39.7375 12.0254 37.9292 12.0466C35.9085 12.0375 33.8848 12.1134 31.8672 11.9738Z" fill="#2196F3"/>
<path d="M35.0236 72.0624C36.7469 71.6285 38.6311 72.8937 38.889 74.6474C39.2227 76.2949 38.0577 78.0637 36.395 78.3611C34.7657 78.7525 32.9726 77.6632 32.5994 76.0279C32.123 74.3288 33.2881 72.3991 35.0236 72.0624ZM35.0509 73.3003C33.6674 73.7311 33.2426 75.7427 34.3409 76.6923C35.4271 77.7785 37.5419 77.0716 37.7057 75.5303C38 74.0831 36.4223 72.7693 35.0509 73.3003Z" fill="#2196F3"/>
<path d="M15.4458 6.69476C28.6014 6.68262 41.7571 6.68869 54.9128 6.69173C54.9401 9.85321 54.934 13.0147 54.9158 16.1792C41.7601 16.2187 28.6014 16.2247 15.4458 16.1762C15.4124 13.0147 15.4154 9.85321 15.4458 6.69476ZM27.0996 10.0595C26.0316 10.4297 25.8374 12.0499 26.7719 12.6779C27.667 13.4152 29.2174 12.7113 29.1901 11.528C29.2962 10.4449 28.0735 9.61049 27.0996 10.0595ZM31.8661 11.9801C33.8837 12.1197 35.9075 12.0438 37.9281 12.0529C39.7364 12.0317 41.5629 12.1894 43.3591 11.88C43.2711 11.5462 43.1862 11.2125 43.1012 10.8818C39.6545 10.8211 36.2018 10.8241 32.7551 10.8605C32.0208 10.6876 31.9693 11.4734 31.8661 11.9801Z" fill="white"/>
<path d="M30.1399 31.0383C33.5714 29.6183 37.5915 29.679 40.9806 31.2082C44.8824 32.9224 47.8709 36.5421 48.8236 40.6957C49.5427 43.6144 49.127 46.694 48.0621 49.4732C47.0001 48.6722 45.8654 47.9198 44.9946 46.9064C44.5759 45.1072 45.1069 43.2048 44.7489 41.3874C44.6366 40.8686 44.1451 40.5167 43.6293 40.4924C42.0152 40.3559 40.392 40.4833 38.7718 40.4226C38.7141 38.8024 38.8416 37.1762 38.705 35.5621C38.6868 34.9492 38.1801 34.4273 37.5642 34.4091C36.0654 34.2817 34.5514 34.3333 33.0496 34.3666C32.4427 34.3545 31.6933 34.5669 31.5568 35.2526C31.2777 36.9486 31.484 38.6811 31.4506 40.3892C29.8699 40.4863 28.2861 40.3771 26.7084 40.4742C26.05 40.4681 25.3916 40.9536 25.3673 41.6453C25.249 43.2139 25.2763 44.7947 25.3491 46.3663C25.3461 46.9853 25.7466 47.6315 26.408 47.6892C28.0767 47.8985 29.7637 47.7408 31.4385 47.7559C31.4719 49.4307 31.3171 51.1177 31.5143 52.7834C31.5568 53.4478 32.2061 53.8513 32.825 53.8453C34.3936 53.9181 35.9744 53.9363 37.543 53.8331C38.2469 53.8271 38.4805 53.0261 38.8749 52.577C40.1614 53.5419 41.4266 54.5461 42.5371 55.7143C40.392 56.9157 37.9769 57.6864 35.5041 57.6803C30.7255 57.7835 26.0257 55.159 23.559 51.0782C21.3017 47.4677 20.886 42.7922 22.4546 38.8358C23.8048 35.3345 26.6507 32.437 30.1399 31.0383Z" fill="white"/>
<path d="M66.0687 46.2111C65.1736 44.6547 66.2447 42.4671 67.9983 42.1667C69.1695 41.8603 70.2466 42.5733 71.0992 43.2924C73.7813 45.574 76.4876 47.8192 79.191 50.0765C81.1753 51.7179 83.0988 53.4868 84.5309 55.647C85.7476 57.425 86.5516 59.4426 87.7683 61.2176C88.9515 62.947 90.6779 64.1818 92.2556 65.5229C93.354 66.4119 94.4007 67.3858 95.6356 68.0867C91.6367 72.9594 87.7743 77.9443 83.6875 82.7381C81.6728 80.9784 79.5551 79.0396 76.8335 78.5451C73.5628 77.9504 70.3194 79.2186 67.0396 78.9273C63.1196 78.7028 59.6759 76.4789 56.7663 74.0061C55.2948 72.6893 53.7353 71.1905 53.3378 69.1729C53.0587 67.85 53.7413 66.6152 54.3239 65.4804C56.3051 66.9853 58.1528 68.651 60.0734 70.2287C60.3343 70.1498 60.8531 69.9921 61.1141 69.9162C60.2645 68.6692 59.0691 67.7378 57.898 66.8154C51.8359 61.7576 45.786 56.6817 39.7149 51.633C38.744 50.7895 37.6062 50.0674 36.9236 48.9509C36.0285 47.3792 37.1026 45.1826 38.8744 44.8883C40.0426 44.597 41.1105 45.3161 41.9601 46.0291C46.5627 49.9248 51.2049 53.775 55.8257 57.6526C56.8967 58.587 57.9617 59.6338 59.4029 59.9584C58.699 57.2399 55.2614 56.624 54.2237 54.1057C53.5229 52.1457 55.5375 49.9612 57.5491 50.5013C60.1037 51.3478 61.4144 54.3485 64.1754 54.7641C63.514 52.5493 60.7682 51.9819 59.9884 49.855C59.3392 47.9254 61.284 45.7894 63.2683 46.2809C65.0584 46.7785 66.0657 48.5595 67.701 49.3392C68.0803 49.403 68.4079 49.1117 68.7569 49.0085C67.8831 48.0558 66.7787 47.3034 66.0687 46.2111Z" fill="white"/>
<path d="M15.4887 69.9062C27.6947 69.9427 39.9007 69.9336 52.1067 69.9093C52.7742 71.4627 53.912 72.7219 54.8435 74.1054C55.0558 76.2201 54.8738 78.3622 54.9132 80.489C41.7545 80.5254 28.5989 80.5285 15.4432 80.486C15.4371 76.9604 15.3583 73.4288 15.4887 69.9062ZM35.022 72.0726C33.2865 72.4093 32.1214 74.339 32.5978 76.0381C32.971 77.6734 34.7641 78.7627 36.3934 78.3713C38.056 78.0739 39.2211 76.3051 38.8874 74.6576C38.6295 72.9039 36.7453 71.6387 35.022 72.0726Z" fill="white"/>
<path d="M35.0523 73.3078C36.4237 72.7769 38.0014 74.0906 37.7071 75.5378C37.5432 77.0791 35.4285 77.7861 34.3423 76.6999C33.244 75.7502 33.6687 73.7386 35.0523 73.3078Z" fill="white"/>
<path d="M15.5098 17.3906C28.6321 17.427 41.7544 17.424 54.8767 17.3906C54.9738 27.7823 54.8767 38.1769 54.9252 48.5686C55.0739 49.5091 54.367 50.1524 53.8178 50.7956C53.1655 51.5207 52.9804 52.5068 52.7134 53.414C51.4482 52.437 50.2225 51.4054 49.027 50.3435C50.1223 47.5218 50.7534 44.4514 50.2042 41.4294C49.4518 36.6629 46.26 32.3546 41.8909 30.2975C37.6311 28.1767 32.361 28.3436 28.1952 30.613C25.2309 32.2059 22.8371 34.8213 21.5203 37.916C19.7332 42.0666 19.9426 47.0242 22.1119 50.9928C25.1308 56.7878 32.1911 60.0434 38.5626 58.5597C40.3648 58.1805 42.0184 57.3461 43.6355 56.4905C46.8911 59.2029 50.1587 61.9033 53.387 64.6521C52.6861 65.9052 52.1703 67.2523 51.8821 68.6631C39.7489 68.7299 27.6127 68.7238 15.4795 68.6662C15.4795 51.5753 15.4218 34.4815 15.5098 17.3906Z" fill="#BBDEFB"/>
<path d="M32.7034 35.5707C34.3175 35.5586 35.9286 35.5586 37.5427 35.5798C37.5396 37.5792 37.4911 39.5848 37.6125 41.5842C39.6119 41.7025 41.6174 41.654 43.6229 41.6479C43.6502 43.0375 43.6533 44.4241 43.6381 45.8137C42.3304 44.7851 40.9529 43.4228 39.1386 43.6322C36.8691 43.7323 35.0456 46.0079 35.4249 48.247C35.4977 50.0553 37.6701 50.8259 37.6428 52.6555C36.0044 52.6828 34.366 52.6615 32.7276 52.6828C32.5881 50.656 32.6973 48.6232 32.5941 46.5965C30.5674 46.5115 28.5346 46.6177 26.5078 46.4721C26.5169 44.8762 26.5169 43.2833 26.5321 41.6904C28.398 41.5933 30.2731 41.7541 32.136 41.5963C32.6578 41.6479 32.5941 40.9653 32.6457 40.6285C32.6943 38.9415 32.6002 37.2546 32.7034 35.5707Z" fill="#BBDEFB"/>
</svg>
