<svg width="97" height="96" viewBox="0 0 97 96" fill="none" xmlns="http://www.w3.org/2000/svg">
<circle cx="48.5598" cy="48.0938" r="47.7378" fill="#E3F2FD"/>
<path d="M33.8042 11.9092C41.2764 7.58481 50.3406 6.21584 58.7943 7.85526C65.0397 9.04301 70.9143 12.2549 75.116 17.0505C80.5612 23.1733 83.249 31.3676 83.592 39.4672C83.7509 44.1903 83.4832 49.0416 81.7797 53.4971C80.0371 58.1616 76.4961 61.9284 72.4143 64.6747C72.4171 70.9815 72.4338 77.2911 72.445 83.6006C72.431 86.3581 72.4924 89.1156 72.4394 91.873C72.498 92.5868 71.274 92.5617 71.366 91.8479C71.2963 82.9398 71.3353 74.0289 71.2851 65.1208C71.299 64.6469 71.2238 64.0418 71.7396 63.7965C74.8985 61.6217 77.787 58.9172 79.6216 55.5129C82.1951 50.8121 82.6217 45.3028 82.499 40.0443C82.2509 31.7859 79.5129 23.3657 73.7972 17.2597C69.5091 12.6007 63.5397 9.65082 57.3026 8.72237C49.2505 7.48165 40.7215 8.97888 33.7456 13.2475C29.5216 15.821 25.9332 19.5766 23.9676 24.1547C22.7854 26.8676 22.1888 29.8202 22.1386 32.7784C22.1525 34.0192 21.62 35.1623 21.1237 36.272C19.119 40.6494 16.7435 44.8817 15.2575 49.4794C14.8448 50.9292 14.3207 52.4989 14.7723 54.0017C15.2547 55.223 16.8132 54.8689 17.8504 54.9581C19.1358 55.0863 20.5382 54.6737 21.7538 55.117C22.0326 58.5185 21.7315 61.9619 21.8988 65.3774C22.1023 67.9452 23.87 70.2901 26.2539 71.2436C28.0996 72.0243 30.1461 71.7176 32.0922 71.7761C34.2224 71.8263 36.3581 71.6785 38.4827 71.8486C38.8005 72.225 38.6806 72.752 38.7197 73.2064C38.7057 79.4212 38.781 85.636 38.7531 91.8535C38.82 92.4167 37.9808 92.6007 37.7159 92.1435C37.5654 90.6797 37.6992 89.2048 37.6128 87.741C37.6657 82.7921 37.5905 77.8431 37.596 72.8942C34.5374 72.8663 31.4789 72.9416 28.4231 72.8579C24.4834 72.7129 21.0094 69.3114 20.7808 65.3718C20.6943 62.2686 20.7724 59.157 20.7445 56.051C19.0465 56.0399 17.3346 56.1737 15.645 55.9479C14.5716 55.814 13.7351 54.8884 13.5706 53.84C13.2863 52.1895 13.7714 50.5389 14.2482 48.9719C15.829 44.1485 18.369 39.7237 20.4239 35.101C20.8003 34.2868 21.0484 33.4086 21.0345 32.5052C21.107 29.3908 21.7845 26.2849 23.0643 23.4437C25.239 18.5394 29.1954 14.5775 33.8042 11.9092Z" fill="#2196F3"/>
<path d="M33.7465 13.2321C40.7224 8.9635 49.2513 7.46627 57.3035 8.70699C63.5405 9.63544 69.5099 12.5853 73.7981 17.2443C79.5138 23.3503 82.2517 31.7705 82.4999 40.0289C82.6225 45.2874 82.196 50.7967 79.6225 55.4975C77.7879 58.9018 74.8994 61.6063 71.7404 63.7811C71.2246 64.0264 71.2999 64.6315 71.286 65.1055C71.3362 74.0136 71.2971 82.9244 71.3668 91.8326C67.4244 91.8521 63.482 91.813 59.5396 91.8549C59.5842 80.7079 59.5395 69.5609 59.5646 58.4167C59.6037 56.7438 59.2775 55.0347 58.3741 53.6072C57.5209 52.1546 56.1074 51.1843 54.8025 50.1722C48.5794 45.3348 42.3618 40.489 36.1387 35.6543C34.7446 34.553 33.0104 33.8699 31.226 33.8532C28.4267 33.764 25.6414 35.2752 24.2166 37.6869C23.3746 39.1256 22.7166 40.6591 21.9359 42.1312C21.2863 43.3663 20.6171 44.6963 20.7593 46.1378C20.8736 48.2233 22.3263 50.1527 24.3058 50.8246C26.4611 51.6332 29.0931 50.8302 30.4119 48.9398C31.028 48.017 31.4546 46.9881 32.0262 46.0402C36.8357 49.7456 41.6174 53.4873 46.413 57.2122C47.1853 57.8396 48.0496 58.3637 48.7355 59.0914C48.9669 60.0561 48.8303 61.0627 48.8526 62.0441C48.8526 71.981 48.8415 81.9179 48.8582 91.8549C45.4901 91.8158 42.122 91.8493 38.754 91.8381C38.7819 85.6206 38.7066 79.4058 38.7205 73.1911C38.6815 72.7366 38.8014 72.2096 38.4835 71.8332C36.359 71.6632 34.2233 71.8109 32.0931 71.7607C30.147 71.7022 28.1005 72.0089 26.2548 71.2282C23.8709 70.2747 22.1032 67.9298 21.8997 65.362C21.7324 61.9465 22.0335 58.5031 21.7547 55.1016C20.5391 54.6583 19.1366 55.0709 17.8513 54.9427C16.8141 54.8535 15.2555 55.2076 14.7732 53.9864C14.3215 52.4836 14.8457 50.9138 15.2583 49.464C16.7444 44.8664 19.1199 40.634 21.1246 36.2566C21.6209 35.1469 22.1534 34.0038 22.1395 32.763C22.1896 29.8048 22.7863 26.8522 23.9685 24.1393C25.9341 19.5612 29.5225 15.8056 33.7465 13.2321Z" fill="white"/>
<path d="M29.9317 36.5037C31.5014 35.9768 33.1827 37.6106 32.7143 39.1887C32.4048 40.803 30.1715 41.4638 29.0228 40.2984C27.7346 39.2166 28.3006 36.8885 29.9317 36.5037Z" fill="white"/>
<path d="M36.3508 41.4959C37.8927 40.7292 39.8221 42.271 39.4429 43.9383C39.2365 45.5889 37.0005 46.3947 35.7848 45.2515C34.5302 44.2673 34.8675 42.0703 36.3508 41.4959Z" fill="white"/>
<path d="M25.1882 43.737C26.7105 42.9675 28.6594 44.448 28.3137 46.1236C28.1381 47.7296 26.0386 48.5967 24.7783 47.5902C23.401 46.6757 23.6519 44.3448 25.1882 43.737Z" fill="white"/>
<path d="M24.2165 37.7091C25.6413 35.2973 28.4266 33.7862 31.2259 33.8754C33.0103 33.8921 34.7446 34.5752 36.1386 35.6765C42.3618 40.5112 48.5793 45.3569 54.8024 50.1944C56.1073 51.2064 57.5209 52.1767 58.374 53.6293C59.2774 55.0569 59.6036 56.766 59.5646 58.4389C59.5395 69.5831 59.5841 80.73 59.5395 91.877C55.979 91.9049 52.4186 91.9049 48.8581 91.877C48.8414 81.9401 48.8525 72.0032 48.8525 62.0663C48.8302 61.0848 48.9669 60.0783 48.7354 59.1136C48.0496 58.3859 47.1852 57.8617 46.4129 57.2344C41.6173 53.5095 36.8357 49.7678 32.0261 46.0623C31.4546 47.0103 31.028 48.0391 30.4118 48.962C29.093 50.8524 26.461 51.6553 24.3058 50.8468C22.3262 50.1748 20.8736 48.2455 20.7593 46.1599C20.6171 44.7185 21.2862 43.3885 21.9358 42.1534C22.7165 40.6812 23.3745 39.1478 24.2165 37.7091ZM29.935 36.5297C28.304 36.9145 27.738 39.2425 29.0261 40.3243C30.1748 41.4898 32.4081 40.829 32.7176 39.2147C33.186 37.6366 31.5047 36.0027 29.935 36.5297ZM36.3477 41.5093C34.8644 42.0837 34.5271 44.2807 35.7817 45.2649C36.9974 46.4081 39.2335 45.6023 39.4398 43.9517C39.819 42.2844 37.8896 40.7426 36.3477 41.5093ZM25.1868 43.7621C23.6506 44.3699 23.3996 46.7008 24.777 47.6153C26.0372 48.6218 28.1367 47.7547 28.3123 46.1488C28.6581 44.4731 26.7091 42.9926 25.1868 43.7621Z" fill="#BBDEFB"/>
</svg>
