<svg width="70" height="71" viewBox="0 0 70 71" fill="none" xmlns="http://www.w3.org/2000/svg">
<circle cx="35" cy="35.1407" r="35" fill="#E0F2FE"/>
<path d="M29.75 36.6407C29.3358 36.6407 29 36.9765 29 37.3907C29 37.8049 29.3358 38.1407 29.75 38.1407V36.6407ZM40.25 38.1407C40.6642 38.1407 41 37.8049 41 37.3907C41 36.9765 40.6642 36.6407 40.25 36.6407V38.1407ZM35.75 32.1407C35.75 31.7265 35.4142 31.3907 35 31.3907C34.5858 31.3907 34.25 31.7265 34.25 32.1407H35.75ZM34.25 42.6407C34.25 43.0549 34.5858 43.3907 35 43.3907C35.4142 43.3907 35.75 43.0549 35.75 42.6407H34.25ZM38.75 27.6407C38.75 28.0549 39.0858 28.3907 39.5 28.3907C39.9142 28.3907 40.25 28.0549 40.25 27.6407H38.75ZM29.75 27.6407C29.75 28.0549 30.0858 28.3907 30.5 28.3907C30.9142 28.3907 31.25 28.0549 31.25 27.6407H29.75ZM29.75 38.1407H40.25V36.6407H29.75V38.1407ZM34.25 32.1407V42.6407H35.75V32.1407H34.25ZM26 28.3907H44V26.8907H26V28.3907ZM46.25 30.6407V44.1407H47.75V30.6407H46.25ZM44 46.3907H26V47.8907H44V46.3907ZM23.75 44.1407V30.6407H22.25V44.1407H23.75ZM26 46.3907C24.7574 46.3907 23.75 45.3833 23.75 44.1407H22.25C22.25 46.2118 23.9289 47.8907 26 47.8907V46.3907ZM46.25 44.1407C46.25 45.3833 45.2426 46.3907 44 46.3907V47.8907C46.0711 47.8907 47.75 46.2118 47.75 44.1407H46.25ZM44 28.3907C45.2426 28.3907 46.25 29.398 46.25 30.6407H47.75C47.75 28.5696 46.0711 26.8907 44 26.8907V28.3907ZM26 26.8907C23.9289 26.8907 22.25 28.5696 22.25 30.6407H23.75C23.75 29.398 24.7574 28.3907 26 28.3907V26.8907ZM40.25 27.6407V24.6407H38.75V27.6407H40.25ZM36.5 20.8907H33.5V22.3907H36.5V20.8907ZM29.75 24.6407V27.6407H31.25V24.6407H29.75ZM33.5 20.8907C31.4289 20.8907 29.75 22.5696 29.75 24.6407H31.25C31.25 23.398 32.2574 22.3907 33.5 22.3907V20.8907ZM40.25 24.6407C40.25 22.5696 38.5711 20.8907 36.5 20.8907V22.3907C37.7426 22.3907 38.75 23.398 38.75 24.6407H40.25Z" fill="#0BA5EC"/>
</svg>
