<svg width="70" height="70" viewBox="0 0 70 70" fill="none" xmlns="http://www.w3.org/2000/svg">
<circle cx="35" cy="35" r="35" fill="#E3F2FD"/>
<path d="M29 28C28.4477 28 28 28.4477 28 29C28 29.5523 28.4477 30 29 30V28ZM41 30C41.5523 30 42 29.5523 42 29C42 28.4477 41.5523 28 41 28V30ZM29 34C28.4477 34 28 34.4477 28 35C28 35.5523 28.4477 36 29 36V34ZM36.5 36C37.0523 36 37.5 35.5523 37.5 35C37.5 34.4477 37.0523 34 36.5 34V36ZM27.5 41.7409H28.5C28.5 41.2917 28.2005 40.8977 27.7678 40.7774L27.5 41.7409ZM33.5185 42.4815L33.5447 41.4818C33.2705 41.4746 33.0054 41.5804 32.8114 41.7743L33.5185 42.4815ZM27.5 48.5H26.5C26.5 48.9045 26.7436 49.2691 27.1173 49.4239C27.491 49.5787 27.9211 49.4931 28.2071 49.2071L27.5 48.5ZM29 30H41V28H29V30ZM29 36H36.5V34H29V36ZM22.5 32C22.5 28.0768 23.2829 25.8581 24.9926 24.5283C26.7853 23.134 29.8448 22.5 35 22.5V20.5C29.8317 20.5 26.1412 21.1013 23.7647 22.9496C21.3054 24.8625 20.5 27.8938 20.5 32H22.5ZM47.5 32C47.5 35.9232 46.7171 38.1419 45.0074 39.4717C43.2147 40.866 40.1552 41.5 35 41.5V43.5C40.1683 43.5 43.8588 42.8987 46.2353 41.0504C48.6946 39.1375 49.5 36.1062 49.5 32H47.5ZM35 22.5C40.1552 22.5 43.2147 23.134 45.0074 24.5283C46.7171 25.8581 47.5 28.0768 47.5 32H49.5C49.5 27.8938 48.6946 24.8625 46.2353 22.9496C43.8588 21.1013 40.1683 20.5 35 20.5V22.5ZM27.7678 40.7774C25.7213 40.2086 24.4689 39.3013 23.6894 37.9965C22.8832 36.6469 22.5 34.7371 22.5 32H20.5C20.5 34.8704 20.8914 37.2125 21.9725 39.0222C23.0803 40.8766 24.8279 42.0361 27.2322 42.7044L27.7678 40.7774ZM35 41.5C34.4967 41.5 34.0118 41.494 33.5447 41.4818L33.4924 43.4811C33.9785 43.4938 34.481 43.5 35 43.5V41.5ZM26.5 41.7409V48.5H28.5V41.7409H26.5ZM28.2071 49.2071L34.2257 43.1886L32.8114 41.7743L26.7929 47.7929L28.2071 49.2071Z" fill="#2196F3"/>
</svg>
