<svg width="70" height="71" viewBox="0 0 70 71" fill="none" xmlns="http://www.w3.org/2000/svg">
<circle cx="35" cy="35.1406" r="35" fill="#E0F2FE"/>
<path d="M29 28.3906C28.5858 28.3906 28.25 28.7264 28.25 29.1406C28.25 29.5548 28.5858 29.8906 29 29.8906V28.3906ZM41 29.8906C41.4142 29.8906 41.75 29.5548 41.75 29.1406C41.75 28.7264 41.4142 28.3906 41 28.3906V29.8906ZM29 34.3906C28.5858 34.3906 28.25 34.7264 28.25 35.1406C28.25 35.5548 28.5858 35.8906 29 35.8906V34.3906ZM36.5 35.8906C36.9142 35.8906 37.25 35.5548 37.25 35.1406C37.25 34.7264 36.9142 34.3906 36.5 34.3906V35.8906ZM27.5 41.8815H28.25C28.25 41.5447 28.0254 41.2491 27.7008 41.1589L27.5 41.8815ZM33.5185 42.6221L33.5382 41.8723C33.3325 41.8669 33.1337 41.9463 32.9882 42.0917L33.5185 42.6221ZM27.5 48.6407H26.75C26.75 48.944 26.9327 49.2175 27.213 49.3336C27.4932 49.4497 27.8158 49.3855 28.0303 49.171L27.5 48.6407ZM29 29.8906H41V28.3906H29V29.8906ZM29 35.8906H36.5V34.3906H29V35.8906ZM22.25 32.1406C22.25 28.1946 23.0357 25.8743 24.8391 24.4716C26.7048 23.0205 29.8431 22.3906 35 22.3906V20.8906C29.8333 20.8906 26.2217 21.496 23.9182 23.2876C21.5526 25.1275 20.75 28.0573 20.75 32.1406H22.25ZM47.75 32.1406C47.75 36.0867 46.9643 38.407 45.1609 39.8096C43.2952 41.2607 40.1569 41.8906 35 41.8906V43.3906C40.1667 43.3906 43.7783 42.7852 46.0818 40.9937C48.4474 39.1537 49.25 36.224 49.25 32.1406H47.75ZM35 22.3906C40.1569 22.3906 43.2952 23.0205 45.1609 24.4716C46.9643 25.8743 47.75 28.1946 47.75 32.1406H49.25C49.25 28.0573 48.4474 25.1275 46.0818 23.2876C43.7783 21.496 40.1667 20.8906 35 20.8906V22.3906ZM27.7008 41.1589C25.6096 40.5777 24.2953 39.6389 23.4748 38.2653C22.6342 36.8582 22.25 34.8944 22.25 32.1406H20.75C20.75 34.9943 21.1404 37.2824 22.1871 39.0346C23.2539 40.8204 24.9396 41.9483 27.2992 42.6041L27.7008 41.1589ZM35 41.8906C34.4947 41.8906 34.0076 41.8846 33.5382 41.8723L33.4989 43.3718C33.9827 43.3845 34.4829 43.3906 35 43.3906V41.8906ZM26.75 41.8815V48.6407H28.25V41.8815H26.75ZM28.0303 49.171L34.0489 43.1524L32.9882 42.0917L26.9697 48.1103L28.0303 49.171Z" fill="#0BA5EC"/>
</svg>
