<svg width="70" height="70" viewBox="0 0 70 70" fill="none" xmlns="http://www.w3.org/2000/svg">
<circle cx="35" cy="35" r="35" fill="#E3F2FD"/>
<path d="M48.4992 41.715L47.4995 41.6901C47.4993 41.6984 47.4992 41.7067 47.4992 41.715H48.4992ZM48.4992 45.7797H47.4992L47.4992 45.7837L48.4992 45.7797ZM24.2123 21.5001V20.5001L24.2113 20.5001L24.2123 21.5001ZM28.285 21.5001V22.5002L28.2948 22.5001L28.285 21.5001ZM30.0821 22.1553L29.4308 22.9141L29.4308 22.9141L30.0821 22.1553ZM29.6154 32.2173L28.909 31.5095C28.5899 31.8279 28.5233 32.3206 28.7465 32.7123L29.6154 32.2173ZM37.7608 40.3466L37.2672 41.2163C37.6582 41.4381 38.1491 41.3719 38.4672 41.0544L37.7608 40.3466ZM47.8564 39.8961L48.6187 39.2489L47.8564 39.8961ZM32.0643 29.1564L33.0422 29.3654L32.0643 29.1564ZM40.8277 37.9025L41.0359 38.8806L40.8277 37.9025ZM45.5397 48.4894L45.6295 47.4935C45.5994 47.4907 45.5691 47.4894 45.5389 47.4894L45.5397 48.4894ZM21.5107 24.4538L22.5107 24.4546C22.5107 24.4242 22.5094 24.3938 22.5066 24.3636L21.5107 24.4538ZM47.4992 41.715V45.7797H49.4992V41.715H47.4992ZM24.2123 22.5001H28.285V20.5001H24.2123V22.5001ZM28.2948 22.5001C28.7115 22.496 29.1153 22.6433 29.4308 22.9141L30.7334 21.3964C30.0498 20.8097 29.1761 20.4913 28.2751 20.5002L28.2948 22.5001ZM28.7465 32.7123C30.7683 36.2609 33.7121 39.1988 37.2672 41.2163L38.2544 39.4769C35.012 37.6368 32.3276 34.9577 30.4843 31.7222L28.7465 32.7123ZM47.0941 40.5433C47.3658 40.8633 47.5099 41.2715 47.4995 41.6901L49.4989 41.7399C49.5215 40.8296 49.2081 39.9431 48.6187 39.2489L47.0941 40.5433ZM29.4308 22.9141C29.6337 23.0882 29.8844 23.433 30.1383 23.9637C30.3844 24.4782 30.6009 25.0982 30.7697 25.7478C31.1199 27.0948 31.2127 28.3565 31.0864 28.9474L33.0422 29.3654C33.2674 28.3115 33.0791 26.6822 32.7054 25.2446C32.5123 24.5018 32.256 23.7561 31.9425 23.1006C31.6366 22.4613 31.2406 21.8318 30.7334 21.3964L29.4308 22.9141ZM41.0359 38.8806C41.6303 38.754 42.9007 38.8474 44.2542 39.1991C44.9072 39.3688 45.5298 39.5862 46.0458 39.8336C46.5782 40.0888 46.922 40.3405 47.0941 40.5433L48.6187 39.2489C48.1838 38.7366 47.5518 38.3376 46.9104 38.0301C46.2525 37.7147 45.5034 37.4573 44.7572 37.2634C43.3126 36.888 41.6757 36.6996 40.6195 36.9244L41.0359 38.8806ZM38.4672 41.0544C38.7073 40.8148 38.9486 40.5471 39.1674 40.3085C39.3945 40.0608 39.6084 39.8321 39.8274 39.6258C40.2734 39.2058 40.6577 38.9611 41.0359 38.8806L40.6195 36.9244C39.711 37.1178 39.0019 37.656 38.4562 38.1699C38.1793 38.4306 37.9227 38.7067 37.6933 38.9568C37.4556 39.216 37.2544 39.4392 37.0544 39.6388L38.4672 41.0544ZM31.0864 28.9474C31.006 29.3236 30.7614 29.7066 30.3403 30.152C30.1337 30.3705 29.9045 30.584 29.6563 30.8107C29.4173 31.029 29.149 31.2699 28.909 31.5095L30.3218 32.9251C30.5218 32.7255 30.7454 32.5247 31.0051 32.2874C31.2557 32.0585 31.5323 31.8024 31.7936 31.526C32.3083 30.9816 32.8482 30.2734 33.0422 29.3654L31.0864 28.9474ZM45.5389 47.4894C32.555 47.4996 22.5005 37.3532 22.5107 24.4546L20.5107 24.453C20.4997 38.4518 31.4451 49.5004 45.5405 49.4894L45.5389 47.4894ZM47.4992 45.7837C47.5031 46.7505 46.6089 47.5818 45.6295 47.4935L45.4498 49.4854C47.6079 49.68 49.5079 47.9164 49.4992 45.7756L47.4992 45.7837ZM22.5066 24.3636C22.4189 23.3949 23.2423 22.501 24.2132 22.5001L24.2113 20.5001C22.0786 20.5021 20.3199 22.3919 20.5148 24.544L22.5066 24.3636Z" fill="#2196F3"/>
</svg>
