<svg width="70" height="71" viewBox="0 0 70 71" fill="none" xmlns="http://www.w3.org/2000/svg">
<circle cx="35" cy="35.1407" r="35" fill="#E0F2FE"/>
<path d="M41 48.2969C41.4142 48.2969 41.75 47.9611 41.75 47.5469C41.75 47.1327 41.4142 46.7969 41 46.7969V48.2969ZM29 46.7969C28.5858 46.7969 28.25 47.1327 28.25 47.5469C28.25 47.9611 28.5858 48.2969 29 48.2969V46.7969ZM35 48.2969H41V46.7969H35V48.2969ZM35 46.7969H29V48.2969H35V46.7969ZM35.75 47.5469V41.5469H34.25V47.5469H35.75ZM24.5 25.7969H45.5V24.2969H24.5V25.7969ZM46.25 26.5469V40.0469H47.75V26.5469H46.25ZM23.75 40.0469V26.5469H22.25V40.0469H23.75ZM24.5 40.7969C24.0858 40.7969 23.75 40.4611 23.75 40.0469H22.25C22.25 41.2896 23.2574 42.2969 24.5 42.2969V40.7969ZM46.25 40.0469C46.25 40.4611 45.9142 40.7969 45.5 40.7969V42.2969C46.7426 42.2969 47.75 41.2896 47.75 40.0469H46.25ZM45.5 25.7969C45.9142 25.7969 46.25 26.1327 46.25 26.5469H47.75C47.75 25.3043 46.7426 24.2969 45.5 24.2969V25.7969ZM24.5 24.2969C23.2574 24.2969 22.25 25.3043 22.25 26.5469H23.75C23.75 26.1327 24.0858 25.7969 24.5 25.7969V24.2969ZM24.5 42.2969H35V40.7969H24.5V42.2969ZM35 42.2969H45.5V40.7969H35V42.2969Z" fill="#0BA5EC"/>
</svg>
