<svg width="97" height="97" viewBox="0 0 97 97" fill="none" xmlns="http://www.w3.org/2000/svg">
<circle cx="48.5" cy="48.4029" r="47.7378" fill="#E0F2FE"/>
<path d="M33.7444 12.2183C41.2166 7.8939 50.2809 6.52493 58.7345 8.16435C64.9799 9.3521 70.8545 12.564 75.0562 17.3596C80.5015 23.4824 83.1893 31.6767 83.5322 39.7763C83.6911 44.4994 83.4235 49.3507 81.7199 53.8062C79.9773 58.4707 76.4364 62.2375 72.3546 64.9838C72.3573 71.2906 72.3741 77.6002 72.3852 83.9097C72.3713 86.6672 72.4326 89.4247 72.3796 92.1821C72.4382 92.8959 71.2142 92.8708 71.3062 92.157C71.2365 83.2489 71.2755 74.338 71.2253 65.4299C71.2393 64.9559 71.164 64.3509 71.6798 64.1056C74.8388 61.9308 77.7273 59.2263 79.5619 55.822C82.1353 51.1212 82.5619 45.6118 82.4392 40.3534C82.1911 32.0949 79.4531 23.6748 73.7375 17.5687C69.4493 12.9098 63.4799 9.95991 57.2428 9.03146C49.1907 7.79074 40.6618 9.28797 33.6859 13.5566C29.4618 16.1301 25.8735 19.8857 23.9079 24.4638C22.7257 27.1767 22.129 30.1293 22.0788 33.0875C22.0928 34.3282 21.5602 35.4714 21.064 36.5811C19.0593 40.9584 16.6838 45.1908 15.1977 49.7885C14.7851 51.2383 14.2609 52.808 14.7126 54.3108C15.1949 55.532 16.7535 55.1779 17.7907 55.2672C19.076 55.3954 20.4784 54.9828 21.6941 55.4261C21.9729 58.8276 21.6718 62.271 21.8391 65.6864C22.0426 68.2543 23.8103 70.5991 26.1941 71.5527C28.0399 72.3334 30.0864 72.0267 32.0325 72.0852C34.1626 72.1354 36.2983 71.9876 38.4229 72.1577C38.7408 72.5341 38.6209 73.0611 38.6599 73.5155C38.646 79.7303 38.7212 85.9451 38.6934 92.1626C38.7603 92.7258 37.921 92.9098 37.6562 92.4526C37.5056 90.9888 37.6394 89.5139 37.553 88.0501C37.606 83.1012 37.5307 78.1522 37.5363 73.2033C34.4777 73.1754 31.4191 73.2507 28.3633 73.167C24.4237 73.022 20.9496 69.6205 20.721 65.6809C20.6346 62.5777 20.7126 59.4661 20.6848 56.3601C18.9868 56.349 17.2749 56.4828 15.5853 56.257C14.5118 56.1231 13.6754 55.1975 13.5109 54.1491C13.2265 52.4985 13.7116 50.848 14.1884 49.281C15.7693 44.4576 18.3093 40.0328 20.3641 35.41C20.7405 34.5959 20.9887 33.7176 20.9747 32.8143C21.0472 29.6999 21.7247 26.594 23.0045 23.7528C25.1792 18.8485 29.1356 14.8866 33.7444 12.2183Z" fill="#0BA5EC"/>
<path d="M33.6867 13.5412C40.6626 9.27259 49.1916 7.77536 57.2437 9.01608C63.4808 9.94453 69.4502 12.8944 73.7383 17.5534C79.454 23.6594 82.192 32.0796 82.4401 40.338C82.5628 45.5965 82.1362 51.1058 79.5627 55.8066C77.7282 59.2109 74.8396 61.9154 71.6807 64.0902C71.1649 64.3355 71.2402 64.9406 71.2262 65.4145C71.2764 74.3226 71.2374 83.2335 71.3071 92.1416C67.3646 92.1612 63.4222 92.1221 59.4798 92.1639C59.5244 81.017 59.4798 69.87 59.5049 58.7258C59.5439 57.0529 59.2177 55.3438 58.3143 53.9163C57.4612 52.4636 56.0476 51.4934 54.7427 50.4813C48.5196 45.6439 42.3021 40.7981 36.0789 35.9634C34.6849 34.8621 32.9507 34.179 31.1662 34.1623C28.367 34.0731 25.5816 35.5842 24.1569 37.996C23.3149 39.4347 22.6569 40.9681 21.8762 42.4403C21.2265 43.6754 20.5574 45.0054 20.6996 46.4468C20.8139 48.5324 22.2665 50.4618 24.2461 51.1337C26.4013 51.9423 29.0333 51.1393 30.3521 49.2489C30.9683 48.326 31.3949 47.2972 31.9664 46.3493C36.776 50.0547 41.5576 53.7964 46.3532 57.5213C47.1256 58.1487 47.9899 58.6728 48.6758 59.4005C48.9072 60.3652 48.7706 61.3717 48.7929 62.3532C48.7929 72.2901 48.7817 82.227 48.7984 92.1639C45.4304 92.1249 42.0623 92.1584 38.6942 92.1472C38.7221 85.9297 38.6468 79.7149 38.6608 73.5001C38.6217 73.0457 38.7416 72.5187 38.4238 72.1423C36.2992 71.9722 34.1635 72.12 32.0334 72.0698C30.0872 72.0113 28.0407 72.318 26.195 71.5373C23.8111 70.5838 22.0435 68.2389 21.8399 65.6711C21.6726 62.2556 21.9738 58.8122 21.6949 55.4107C20.4793 54.9674 19.0769 55.38 17.7915 55.2518C16.7544 55.1626 15.1958 55.5167 14.7134 54.2955C14.2618 52.7926 14.7859 51.2229 15.1986 49.7731C16.6847 45.1754 19.0602 40.9431 21.0648 36.5657C21.5611 35.456 22.0936 34.3129 22.0797 33.0721C22.1299 30.1139 22.7266 27.1613 23.9087 24.4484C25.8744 19.8703 29.4627 16.1147 33.6867 13.5412Z" fill="white"/>
<path d="M29.8719 36.8128C31.4417 36.2859 33.1229 37.9197 32.6545 39.4978C32.345 41.1121 30.1117 41.7729 28.963 40.6075C27.6749 39.5257 28.2409 37.1976 29.8719 36.8128Z" fill="white"/>
<path d="M36.2911 41.805C37.8329 41.0383 39.7623 42.5801 39.3831 44.2474C39.1768 45.898 36.9407 46.7038 35.7251 45.5606C34.4704 44.5764 34.8078 42.3793 36.2911 41.805Z" fill="white"/>
<path d="M25.1284 44.0461C26.6508 43.2765 28.5997 44.757 28.2539 46.4327C28.0783 48.0387 25.9788 48.9058 24.7186 47.8993C23.3412 46.9848 23.5922 44.6539 25.1284 44.0461Z" fill="white"/>
<path d="M24.1568 38.0182C25.5815 35.6064 28.3669 34.0953 31.1662 34.1845C32.9506 34.2012 34.6848 34.8843 36.0789 35.9856C42.302 40.8202 48.5195 45.666 54.7427 50.5034C56.0475 51.5155 57.4611 52.4858 58.3143 53.9384C59.2176 55.366 59.5438 57.0751 59.5048 58.748C59.4797 69.8922 59.5243 81.0391 59.4797 92.1861C55.9193 92.214 52.3588 92.214 48.7984 92.1861C48.7816 82.2492 48.7928 72.3123 48.7928 62.3753C48.7705 61.3939 48.9071 60.3874 48.6757 59.4227C47.9898 58.695 47.1255 58.1708 46.3532 57.5435C41.5576 53.8185 36.7759 50.0769 31.9664 46.3714C31.3948 47.3194 30.9682 48.3482 30.352 49.2711C29.0332 51.1614 26.4012 51.9644 24.246 51.1559C22.2664 50.4839 20.8138 48.5545 20.6995 46.469C20.5573 45.0275 21.2265 43.6976 21.8761 42.4625C22.6568 40.9903 23.3148 39.4568 24.1568 38.0182ZM29.8753 36.8388C28.2442 37.2235 27.6782 39.5516 28.9663 40.6334C30.115 41.7989 32.3483 41.1381 32.6578 39.5238C33.1262 37.9457 31.445 36.3118 29.8753 36.8388ZM36.288 41.8184C34.8047 42.3928 34.4673 44.5898 35.722 45.574C36.9376 46.7172 39.1737 45.9114 39.38 44.2608C39.7592 42.5935 37.8298 41.0517 36.288 41.8184ZM25.1271 44.0712C23.5908 44.679 23.3399 47.0099 24.7172 47.9244C25.9774 48.9309 28.0769 48.0638 28.2526 46.4579C28.5983 44.7822 26.6494 43.3017 25.1271 44.0712Z" fill="#E0F2FE"/>
</svg>
