<svg width="70" height="70" viewBox="0 0 70 70" fill="none" xmlns="http://www.w3.org/2000/svg">
<circle cx="35" cy="35" r="35" fill="#E3F2FD"/>
<path d="M41 48.4062C41.5523 48.4062 42 47.9585 42 47.4062C42 46.854 41.5523 46.4062 41 46.4062V48.4062ZM29 46.4062C28.4477 46.4062 28 46.854 28 47.4062C28 47.9585 28.4477 48.4062 29 48.4062V46.4062ZM35 48.4062H41V46.4062H35V48.4062ZM35 46.4062H29V48.4062H35V46.4062ZM36 47.4062V41.4062H34V47.4062H36ZM24.5 25.9062H45.5V23.9062H24.5V25.9062ZM46 26.4062V39.9062H48V26.4062H46ZM24 39.9062V26.4062H22V39.9062H24ZM24.5 40.4062C24.2239 40.4062 24 40.1824 24 39.9062H22C22 41.287 23.1193 42.4062 24.5 42.4062V40.4062ZM46 39.9062C46 40.1824 45.7761 40.4062 45.5 40.4062V42.4062C46.8807 42.4062 48 41.287 48 39.9062H46ZM45.5 25.9062C45.7761 25.9062 46 26.1301 46 26.4062H48C48 25.0255 46.8807 23.9062 45.5 23.9062V25.9062ZM24.5 23.9062C23.1193 23.9062 22 25.0255 22 26.4062H24C24 26.1301 24.2239 25.9062 24.5 25.9062V23.9062ZM24.5 42.4062H35V40.4062H24.5V42.4062ZM35 42.4062H45.5V40.4062H35V42.4062Z" fill="#2196F3"/>
</svg>
