<svg width="97" height="97" viewBox="0 0 97 97" fill="none" xmlns="http://www.w3.org/2000/svg">
<circle cx="48.4402" cy="48.6582" r="47.7378" fill="#E3F2FD"/>
<path d="M14.5579 6.28421C18.7878 6.1778 23.0207 6.2783 27.2506 6.2251C36.6089 6.33151 45.9703 6.13642 55.3257 6.31968C55.4587 8.85289 55.3848 11.3891 55.3966 13.9252C55.4735 25.5567 55.3937 37.1911 55.4439 48.8226C56.1888 48.8846 56.9337 48.9556 57.6786 49.0383C57.9949 47.7555 58.3259 46.313 59.4906 45.5208C60.5961 44.6311 62.0829 44.7848 63.3983 44.9149C63.7411 43.7355 64.0279 42.4112 65.0506 41.619C66.499 40.413 68.7425 40.5135 70.1525 41.7314C73.0729 44.1286 75.9431 46.5879 78.8576 48.994C81.0154 50.7705 83.052 52.7598 84.4975 55.1748C85.7862 57.2262 86.6198 59.6057 88.4022 61.3142C89.6171 62.4818 90.962 63.5045 92.2656 64.5716C93.0873 65.2278 93.9031 65.8958 94.7249 66.555C94.6953 66.7944 94.6332 67.2762 94.6037 67.5186C94.4234 67.4506 94.0598 67.3147 93.8765 67.2437C92.6735 66.5609 91.6537 65.6121 90.5837 64.746C89.0466 63.4395 87.3647 62.2364 86.2119 60.5516C85.0266 58.8224 84.2433 56.8567 83.0579 55.1245C81.6628 53.0199 79.7887 51.2967 77.8556 49.6975C75.2219 47.4983 72.5852 45.311 69.9722 43.0881C69.1416 42.3876 68.0922 41.6929 66.9512 41.9915C65.2427 42.2841 64.1993 44.4153 65.0713 45.9317C65.763 46.9958 66.8389 47.7289 67.6902 48.657C67.3503 48.7575 67.0311 49.0413 66.6616 48.9792C65.0683 48.2196 64.087 46.4844 62.343 45.9997C60.4098 45.5208 58.5151 47.6018 59.1477 49.4817C59.9073 51.5538 62.5824 52.1066 63.2268 54.2644C60.5369 53.8594 59.26 50.936 56.7711 50.1113C54.8114 49.5852 52.8487 51.7134 53.5315 53.6229C54.5424 56.0763 57.8914 56.6764 58.5772 59.3249C57.1731 59.0086 56.1356 57.9888 55.0922 57.0784C50.5903 53.3008 46.0678 49.5497 41.5837 45.7543C40.7561 45.0597 39.7156 44.3592 38.5776 44.6429C36.8513 44.9296 35.8049 47.0697 36.6769 48.6009C37.342 49.6886 38.4505 50.3921 39.3964 51.2139C45.3111 56.1325 51.2052 61.0777 57.1111 66.0052C58.252 66.9038 59.4167 67.8113 60.2443 69.0261C59.9901 69.1 59.4846 69.2537 59.2304 69.3306C57.3594 67.7935 55.5592 66.1707 53.629 64.7046C53.0615 65.8101 52.3964 67.0132 52.6683 68.3019C53.0556 70.2676 54.5749 71.7278 56.0085 73.0107C58.8432 75.4198 62.1982 77.5864 66.0172 77.8052C69.2125 78.0889 72.3724 76.8534 75.5588 77.4327C78.2103 77.9145 80.2735 79.8034 82.2362 81.5178C82.4136 81.8518 82.4668 82.2301 82.3958 82.6528C81.9879 82.4962 81.5593 82.3838 81.1898 82.1474C79.3956 80.7285 77.6664 78.9757 75.3076 78.5914C72.0236 78.0712 68.7662 79.3807 65.4733 78.9461C61.6484 78.621 58.3791 76.4188 55.4173 74.1576C55.3878 76.2563 55.4262 78.3579 55.3434 80.4566C53.094 80.5719 50.8416 80.5246 48.5922 80.5246C40.1176 80.5275 31.646 80.5275 23.1714 80.5246C20.3219 80.5039 17.4724 80.5955 14.6259 80.4566C14.4988 77.9855 14.5638 75.5143 14.555 73.0432C14.4663 53.4338 14.5372 33.8273 14.5165 14.2178C14.5165 11.7526 14.4545 9.28445 14.5431 6.81923C14.5491 6.68326 14.555 6.41723 14.5579 6.28421ZM15.7521 7.43701C15.7226 10.5141 15.7196 13.5942 15.7521 16.6742C28.5689 16.7215 41.3886 16.7156 54.2054 16.6772C54.2231 13.5942 54.2291 10.5141 54.2024 7.43406C41.3857 7.4311 28.5689 7.42519 15.7521 7.43701ZM15.8201 17.8595C15.7344 34.5101 15.7905 51.1636 15.7905 67.8142C27.6112 67.8704 39.4348 67.8763 51.2554 67.8113C51.5362 66.4368 52.0387 65.1243 52.7215 63.9036C49.5765 61.2255 46.393 58.5948 43.2213 55.9522C41.6458 56.7858 40.0348 57.5986 38.279 57.9681C32.0716 59.4136 25.1933 56.2419 22.2521 50.5961C20.1387 46.7298 19.9347 41.8999 21.6757 37.8562C22.9586 34.8412 25.2908 32.2932 28.1787 30.7413C32.2372 28.5303 37.3716 28.3677 41.5216 30.4339C45.7781 32.438 48.8877 36.6354 49.6208 41.2791C50.1558 44.2232 49.541 47.2146 48.4739 49.9635C49.6385 50.9981 50.8327 52.0031 52.0653 52.9549C52.3255 52.0711 52.5058 51.1104 53.1413 50.404C53.6763 49.7773 54.365 49.1507 54.2202 48.2343C54.1729 38.1104 54.2675 27.9835 54.1729 17.8595C41.3886 17.892 28.6044 17.895 15.8201 17.8595ZM30.0734 31.1522C26.6742 32.5149 23.9015 35.3377 22.5862 38.7489C21.0579 42.6033 21.4629 47.1584 23.6621 50.6759C26.0652 54.6516 30.6439 57.2085 35.2995 57.108C37.7085 57.1139 40.0614 56.3631 42.1513 55.1925C41.0694 54.0545 39.8368 53.0761 38.5835 52.1361C38.1992 52.5736 37.9716 53.354 37.2858 53.3599C35.7576 53.4604 34.2176 53.4426 32.6894 53.3717C32.0864 53.3776 31.4539 52.9845 31.4125 52.3371C31.2203 50.7143 31.3711 49.0709 31.3386 47.4392C29.7069 47.4244 28.0634 47.5781 26.4377 47.3742C25.7933 47.318 25.4031 46.6884 25.4061 46.0854C25.3351 44.5542 25.3085 43.0142 25.4238 41.486C25.4475 40.8121 26.0889 40.3391 26.7303 40.345C28.2674 40.2505 29.8104 40.3569 31.3504 40.2623C31.3829 38.5981 31.1819 36.9103 31.4538 35.2579C31.5869 34.5899 32.317 34.383 32.9082 34.3948C34.3713 34.3623 35.8463 34.3121 37.3065 34.4362C37.9066 34.4539 38.4002 34.9624 38.4179 35.5594C38.551 37.132 38.4268 38.7163 38.483 40.2948C40.0614 40.3539 41.6428 40.2298 43.2154 40.3628C43.7179 40.3864 44.1967 40.7293 44.3061 41.2348C44.6549 43.0054 44.1376 44.8587 44.5455 46.6116C45.3939 47.5988 46.4994 48.3319 47.5339 49.1122C48.5715 46.4046 48.9764 43.4044 48.2759 40.5608C47.3477 36.5142 44.4362 32.9878 40.6349 31.3177C37.3331 29.828 33.4166 29.7688 30.0734 31.1522ZM32.5712 35.5713C32.4707 37.2118 32.5623 38.8553 32.515 40.4988C32.4648 40.8269 32.5268 41.4919 32.0184 41.4417C30.2035 41.5954 28.3768 41.4387 26.5589 41.5333C26.5441 43.0852 26.5441 44.637 26.5352 46.1918C28.5098 46.3337 30.4902 46.2302 32.4648 46.313C32.5653 48.2875 32.4589 50.268 32.5948 52.2425C34.191 52.2218 35.7872 52.2425 37.3834 52.2159C37.41 50.4335 35.2936 49.6827 35.2226 47.921C34.8531 45.7396 36.6296 43.5226 38.8406 43.4251C40.6083 43.2211 41.9502 44.5483 43.2242 45.5504C43.239 44.1966 43.2361 42.8457 43.2095 41.4919C41.2556 41.4978 39.3018 41.5451 37.3538 41.4299C37.2356 39.4819 37.2829 37.5281 37.2858 35.5801C35.7133 35.5594 34.1437 35.5594 32.5712 35.5713ZM15.7965 69.0173C15.6693 72.4491 15.7462 75.8897 15.7521 79.3245C28.5689 79.3659 41.3857 79.3629 54.2054 79.3275C54.167 77.2554 54.3443 75.1685 54.1374 73.1082C53.23 71.7603 52.1215 70.5337 51.4712 69.0202C39.5796 69.0439 27.688 69.0527 15.7965 69.0173Z" fill="#2196F3"/>
<path d="M27.1041 10.7131C28.0529 10.2757 29.2441 11.0885 29.1407 12.1438C29.1673 13.2966 27.6568 13.9824 26.7848 13.2641C25.8744 12.6522 26.0636 11.0738 27.1041 10.7131Z" fill="#2196F3"/>
<path d="M31.7493 12.5835C31.8498 12.0898 31.9001 11.3242 32.6154 11.4927C35.9733 11.4573 39.3371 11.4543 42.695 11.5134C42.7778 11.8356 42.8606 12.1608 42.9463 12.4859C41.1964 12.7874 39.4169 12.6337 37.6552 12.6544C35.6866 12.6455 33.715 12.7194 31.7493 12.5835Z" fill="#2196F3"/>
<path d="M34.8249 71.129C36.5039 70.7063 38.3395 71.9389 38.5907 73.6474C38.9159 75.2525 37.7808 76.9758 36.161 77.2655C34.5737 77.6468 32.8267 76.5856 32.4631 74.9924C31.9991 73.3371 33.1341 71.4571 34.8249 71.129ZM34.8515 72.335C33.5036 72.7548 33.0898 74.7145 34.1598 75.6397C35.218 76.6979 37.2783 76.0092 37.4379 74.5076C37.7246 73.0976 36.1876 71.8177 34.8515 72.335Z" fill="#2196F3"/>
<path d="M15.7492 7.45092C28.566 7.4391 41.3828 7.44501 54.1995 7.44796C54.2262 10.528 54.2202 13.6081 54.2025 16.6911C41.3857 16.7295 28.566 16.7354 15.7492 16.6881C15.7167 13.6081 15.7197 10.528 15.7492 7.45092ZM27.1028 10.729C26.0623 11.0896 25.8732 12.6681 26.7836 13.28C27.6556 13.9982 29.166 13.3125 29.1394 12.1597C29.2429 11.1044 28.0517 10.2915 27.1028 10.729ZM31.7465 12.6001C33.7122 12.7361 35.6838 12.6622 37.6524 12.671C39.4141 12.6503 41.1936 12.8041 42.9435 12.5026C42.8578 12.1774 42.775 11.8523 42.6922 11.5301C39.3343 11.4709 35.9705 11.4739 32.6126 11.5094C31.8973 11.3409 31.847 12.1065 31.7465 12.6001Z" fill="white"/>
<path d="M30.0655 31.1667C33.4086 29.7834 37.3252 29.8425 40.6269 31.3322C44.4282 33.0023 47.3398 36.5287 48.2679 40.5753C48.9685 43.4189 48.5635 46.4192 47.526 49.1268C46.4914 48.3464 45.3859 47.6133 44.5376 46.6261C44.1297 44.8732 44.647 43.0199 44.2982 41.2493C44.1888 40.7438 43.7099 40.4009 43.2074 40.3773C41.6349 40.2443 40.0535 40.3684 38.475 40.3093C38.4189 38.7309 38.543 37.1465 38.41 35.574C38.3923 34.9769 37.8986 34.4685 37.2986 34.4507C35.8384 34.3266 34.3634 34.3768 32.9002 34.4093C32.309 34.3975 31.5789 34.6044 31.4459 35.2725C31.174 36.9248 31.375 38.6126 31.3425 40.2768C29.8024 40.3714 28.2594 40.265 26.7224 40.3596C26.081 40.3537 25.4395 40.8266 25.4159 41.5005C25.3006 43.0287 25.3272 44.5688 25.3981 46.0999C25.3952 46.7029 25.7854 47.3325 26.4298 47.3887C28.0555 47.5927 29.699 47.4389 31.3306 47.4537C31.3631 49.0854 31.2124 50.7289 31.4045 52.3516C31.4459 52.999 32.0785 53.3921 32.6815 53.3862C34.2097 53.4572 35.7497 53.4749 37.2779 53.3744C37.9637 53.3685 38.1913 52.5881 38.5755 52.1506C39.8288 53.0906 41.0615 54.069 42.1433 55.207C40.0535 56.3776 37.7006 57.1284 35.2915 57.1225C30.636 57.223 26.0573 54.6661 23.6542 50.6904C21.455 47.1729 21.05 42.6179 22.5782 38.7634C23.8936 35.3523 26.6662 32.5294 30.0655 31.1667Z" fill="white"/>
<path d="M65.0668 45.9552C64.1948 44.4388 65.2382 42.3076 66.9467 42.0149C68.0877 41.7164 69.137 42.411 69.9676 43.1116C72.5807 45.3344 75.2173 47.5218 77.851 49.721C79.7842 51.3201 81.6582 53.0434 83.0534 55.148C84.2387 56.8802 85.022 58.8458 86.2074 60.575C87.3602 62.2599 89.0421 63.463 90.5791 64.7695C91.6492 65.6355 92.669 66.5844 93.872 67.2672C89.9761 72.0144 86.2133 76.8709 82.2317 81.5412C80.269 79.8268 78.2057 77.938 75.5543 77.4562C72.3678 76.8768 69.208 78.1124 66.0127 77.8286C62.1936 77.6099 58.8387 75.4432 56.004 73.0342C54.5704 71.7513 53.051 70.2911 52.6638 68.3254C52.3919 67.0366 53.0569 65.8336 53.6245 64.7281C55.5547 66.1942 57.3548 67.817 59.2259 69.3541C59.4801 69.2772 59.9856 69.1235 60.2398 69.0496C59.4121 67.8347 58.2475 66.9273 57.1065 66.0287C51.2006 61.1012 45.3066 56.156 39.3918 51.2374C38.4459 50.4156 37.3375 49.7121 36.6724 48.6243C35.8004 47.0932 36.8468 44.9531 38.573 44.6664C39.7111 44.3826 40.7515 45.0832 41.5792 45.7778C46.0633 49.5732 50.5858 53.3242 55.0877 57.1019C56.1311 58.0123 57.1686 59.0321 58.5727 59.3483C57.8869 56.6999 54.5379 56.0998 53.5269 53.6464C52.8441 51.7369 54.8068 49.6087 56.7666 50.1348C59.2555 50.9595 60.5324 53.8829 63.2223 54.2878C62.5779 52.13 59.9028 51.5773 59.1431 49.5052C58.5106 47.6252 60.4053 45.5443 62.3385 46.0231C64.0825 46.5079 65.0638 48.243 66.657 49.0027C67.0265 49.0648 67.3458 48.781 67.6857 48.6805C66.8344 47.7524 65.7584 47.0193 65.0668 45.9552Z" fill="white"/>
<path d="M15.7908 69.0298C27.6824 69.0653 39.574 69.0564 51.4656 69.0327C52.1159 70.5462 53.2243 71.7729 54.1318 73.1207C54.3387 75.181 54.1613 77.2679 54.1998 79.34C41.38 79.3754 28.5633 79.3784 15.7465 79.337C15.7406 75.9022 15.6637 72.4616 15.7908 69.0298ZM34.8209 71.1403C33.1301 71.4684 31.9951 73.3484 32.4591 75.0037C32.8227 76.5969 34.5696 77.6581 36.157 77.2767C37.7768 76.9871 38.9119 75.2638 38.5867 73.6587C38.3355 71.9502 36.4998 70.7176 34.8209 71.1403Z" fill="white"/>
<path d="M34.8493 72.3501C36.1853 71.8328 37.7224 73.1127 37.4357 74.5227C37.2761 76.0243 35.2158 76.713 34.1576 75.6548C33.0876 74.7296 33.5014 72.7699 34.8493 72.3501Z" fill="white"/>
<path d="M15.8126 17.8579C28.5968 17.8934 41.3811 17.8904 54.1654 17.8579C54.26 27.9819 54.1654 38.1088 54.2127 48.2327C54.3575 49.1491 53.6688 49.7757 53.1338 50.4024C52.4982 51.1088 52.3179 52.0695 52.0578 52.9533C50.8252 52.0015 49.631 50.9965 48.4664 49.9619C49.5335 47.2129 50.1483 44.2216 49.6133 41.2775C48.8802 36.6338 45.7706 32.4364 41.5141 30.4323C37.364 28.3661 32.2296 28.5287 28.1712 30.7397C25.2833 32.2916 22.9511 34.8396 21.6682 37.8546C19.9272 41.8982 20.1311 46.7282 22.2446 50.5945C25.1857 56.2403 32.0641 59.4119 38.2715 57.9665C40.0273 57.597 41.6383 56.7841 43.2138 55.9506C46.3854 58.5932 49.5689 61.2239 52.714 63.902C52.0312 65.1227 51.5287 66.4352 51.2479 67.8097C39.4273 67.8747 27.6037 67.8688 15.783 67.8126C15.783 51.162 15.7269 34.5085 15.8126 17.8579Z" fill="#BBDEFB"/>
<path d="M32.5626 35.5768C34.1352 35.565 35.7047 35.565 37.2773 35.5857C37.2743 37.5336 37.227 39.4875 37.3453 41.4354C39.2932 41.5507 41.247 41.5034 43.2009 41.4975C43.2275 42.8513 43.2305 44.2022 43.2157 45.556C41.9417 44.5539 40.5997 43.2267 38.8321 43.4307C36.6211 43.5282 34.8446 45.7451 35.2141 47.9266C35.285 49.6883 37.4014 50.4391 37.3748 52.2215C35.7786 52.2481 34.1825 52.2274 32.5863 52.2481C32.4503 50.2736 32.5567 48.2931 32.4562 46.3186C30.4817 46.2358 28.5012 46.3393 26.5267 46.1974C26.5355 44.6426 26.5355 43.0907 26.5503 41.5389C28.3682 41.4443 30.1949 41.601 32.0099 41.4473C32.5183 41.4975 32.4562 40.8324 32.5065 40.5043C32.5537 38.8608 32.4621 37.2174 32.5626 35.5768Z" fill="#BBDEFB"/>
</svg>
