<svg width="16" height="16" viewBox="0 0 16 16" fill="none" xmlns="http://www.w3.org/2000/svg">
<path d="M8 1.25V14.75M8 1.25H13.25C13.6478 1.25 14.0294 1.40804 14.3107 1.68934C14.592 1.97064 14.75 2.35218 14.75 2.75V13.25C14.75 13.6478 14.592 14.0294 14.3107 14.3107C14.0294 14.592 13.6478 14.75 13.25 14.75H8V1.25ZM8 1.25H2.75C2.35218 1.25 1.97064 1.40804 1.68934 1.68934C1.40804 1.97064 1.25 2.35218 1.25 2.75V13.25C1.25 13.6478 1.40804 14.0294 1.68934 14.3107C1.97064 14.592 2.35218 14.75 2.75 14.75H8V1.25Z" stroke="#0BA5EC" stroke-width="2" stroke-linecap="round" stroke-linejoin="round"/>
</svg>
