<svg width="10" height="18" viewBox="0 0 10 18" fill="none" xmlns="http://www.w3.org/2000/svg">
<path d="M0.46967 16.4697C0.176777 16.7626 0.176777 17.2374 0.46967 17.5303C0.762563 17.8232 1.23744 17.8232 1.53033 17.5303L0.46967 16.4697ZM9 9L9.53033 9.53033C9.67098 9.38968 9.75 9.19891 9.75 9C9.75 8.80109 9.67098 8.61032 9.53033 8.46967L9 9ZM1.53033 0.46967C1.23744 0.176777 0.762563 0.176777 0.46967 0.46967C0.176777 0.762563 0.176777 1.23744 0.46967 1.53033L1.53033 0.46967ZM1.53033 17.5303L9.53033 9.53033L8.46967 8.46967L0.46967 16.4697L1.53033 17.5303ZM9.53033 8.46967L1.53033 0.46967L0.46967 1.53033L8.46967 9.53033L9.53033 8.46967Z" fill="#0BA5EC"/>
</svg>
